<?xml version="1.0" encoding="UTF-8" standalone="no"?>
<!DOCTYPE svg PUBLIC "-//W3C//DTD SVG 1.1//EN"
 "http://www.w3.org/Graphics/SVG/1.1/DTD/svg11.dtd">
<!-- Generated by graphviz version 14.1.1 (20251213.1925)
 -->
<!-- Title: G Pages: 1 -->
<svg width="744pt" height="461pt"
 viewBox="0.00 0.00 744.00 461.00" xmlns="http://www.w3.org/2000/svg" xmlns:xlink="http://www.w3.org/1999/xlink">
<g id="graph0" class="graph" transform="scale(1 1) rotate(0) translate(4 457.25)">
<title>G</title>
<polygon fill="white" stroke="none" points="-4,4 -4,-457.25 740,-457.25 740,4 -4,4"/>
<g id="clust1" class="cluster">
<title>cluster_[21]Vending Machine Model</title>
<polygon fill="none" stroke="black" points="8,-8 8,-445.25 728,-445.25 728,-8 8,-8"/>
<text xml:space="preserve" text-anchor="middle" x="368" y="-427.95" font-family="Times,serif" font-size="14.00">Vending Machine Model</text>
</g>
<!-- [21]Vending Machine Model[22]Idle (Accepting Coins) -->
<g id="node1" class="node">
<title>[21]Vending Machine Model[22]Idle (Accepting Coins)</title>
<path fill="white" stroke="black" d="M581.62,-412C581.62,-412 404.38,-412 404.38,-412 398.38,-412 392.38,-406 392.38,-400 392.38,-400 392.38,-388 392.38,-388 392.38,-382 398.38,-376 404.38,-376 404.38,-376 581.62,-376 581.62,-376 587.62,-376 593.62,-382 593.62,-388 593.62,-388 593.62,-400 593.62,-400 593.62,-406 587.62,-412 581.62,-412"/>
<text xml:space="preserve" text-anchor="middle" x="493" y="-391.2" font-family="Times,serif" font-size="14.00">【Idle (Accepting Coins)】</text>
</g>
<!-- [21]Vending Machine Model[22]Idle (Accepting Coins)[14]Insert 100 Yen -->
<g id="node2" class="node">
<title>[21]Vending Machine Model[22]Idle (Accepting Coins)[14]Insert 100 Yen</title>
<text xml:space="preserve" text-anchor="middle" x="368" y="-317.32" font-family="Times,serif" font-size="14.00">[Insert 100 Yen]</text>
</g>
<!-- [21]Vending Machine Model[22]Idle (Accepting Coins)&#45;&gt;[21]Vending Machine Model[22]Idle (Accepting Coins)[14]Insert 100 Yen -->
<g id="edge1" class="edge">
<title>[21]Vending Machine Model[22]Idle (Accepting Coins)&#45;&gt;[21]Vending Machine Model[22]Idle (Accepting Coins)[14]Insert 100 Yen</title>
<path fill="none" stroke="blue" d="M461.78,-375.52C442.26,-364.58 417.24,-350.58 397.96,-339.78"/>
</g>
<!-- [21]Vending Machine Model[22]Idle (Accepting Coins)[9]Walk Away -->
<g id="node3" class="node">
<title>[21]Vending Machine Model[22]Idle (Accepting Coins)[9]Walk Away</title>
<text xml:space="preserve" text-anchor="middle" x="584" y="-245.32" font-family="Times,serif" font-size="14.00">[Walk Away]</text>
</g>
<!-- [21]Vending Machine Model[22]Idle (Accepting Coins)&#45;&gt;[21]Vending Machine Model[22]Idle (Accepting Coins)[9]Walk Away -->
<g id="edge3" class="edge">
<title>[21]Vending Machine Model[22]Idle (Accepting Coins)&#45;&gt;[21]Vending Machine Model[22]Idle (Accepting Coins)[9]Walk Away</title>
<path fill="none" stroke="blue" d="M504.16,-375.59C521.81,-348.04 555.96,-294.75 573.32,-267.67"/>
</g>
<!-- [21]Vending Machine Model[14]Selecting Item -->
<g id="node4" class="node">
<title>[21]Vending Machine Model[14]Selecting Item</title>
<path fill="white" stroke="black" d="M401.38,-268C401.38,-268 276.62,-268 276.62,-268 270.62,-268 264.62,-262 264.62,-256 264.62,-256 264.62,-244 264.62,-244 264.62,-238 270.62,-232 276.62,-232 276.62,-232 401.38,-232 401.38,-232 407.38,-232 413.38,-238 413.38,-244 413.38,-244 413.38,-256 413.38,-256 413.38,-262 407.38,-268 401.38,-268"/>
<text xml:space="preserve" text-anchor="middle" x="339" y="-247.2" font-family="Times,serif" font-size="14.00">【Selecting Item】</text>
</g>
<!-- [21]Vending Machine Model[22]Idle (Accepting Coins)[14]Insert 100 Yen&#45;&gt;[21]Vending Machine Model[14]Selecting Item -->
<g id="edge2" class="edge">
<title>[21]Vending Machine Model[22]Idle (Accepting Coins)[14]Insert 100 Yen&#45;&gt;[21]Vending Machine Model[14]Selecting Item</title>
<path fill="none" stroke="blue" d="M360.98,-304.05C357.82,-296.43 354.01,-287.23 350.46,-278.65"/>
<polygon fill="blue" stroke="blue" points="353.8,-277.57 346.74,-269.67 347.33,-280.25 353.8,-277.57"/>
</g>
<!-- [21]Vending Machine Model[8]Terminal -->
<g id="node13" class="node">
<title>[21]Vending Machine Model[8]Terminal</title>
<path fill="white" stroke="black" d="M654.75,-124C654.75,-124 571.25,-124 571.25,-124 565.25,-124 559.25,-118 559.25,-112 559.25,-112 559.25,-100 559.25,-100 559.25,-94 565.25,-88 571.25,-88 571.25,-88 654.75,-88 654.75,-88 660.75,-88 666.75,-94 666.75,-100 666.75,-100 666.75,-112 666.75,-112 666.75,-118 660.75,-124 654.75,-124"/>
<text xml:space="preserve" text-anchor="middle" x="613" y="-103.2" font-family="Times,serif" font-size="14.00">【Terminal】</text>
</g>
<!-- [21]Vending Machine Model[22]Idle (Accepting Coins)[9]Walk Away&#45;&gt;[21]Vending Machine Model[8]Terminal -->
<g id="edge4" class="edge">
<title>[21]Vending Machine Model[22]Idle (Accepting Coins)[9]Walk Away&#45;&gt;[21]Vending Machine Model[8]Terminal</title>
<path fill="none" stroke="blue" d="M604.34,-232.08C614.11,-222.61 624.8,-209.92 630,-196 637.39,-176.2 632.34,-152.67 625.88,-134.78"/>
<polygon fill="blue" stroke="blue" points="629.17,-133.59 622.21,-125.6 622.67,-136.18 629.17,-133.59"/>
</g>
<!-- [21]Vending Machine Model[14]Selecting Item[11]Insert More -->
<g id="node5" class="node">
<title>[21]Vending Machine Model[14]Selecting Item[11]Insert More</title>
<text xml:space="preserve" text-anchor="middle" x="339" y="-173.32" font-family="Times,serif" font-size="14.00">[Insert More]</text>
</g>
<!-- [21]Vending Machine Model[14]Selecting Item&#45;&gt;[21]Vending Machine Model[14]Selecting Item[11]Insert More -->
<g id="edge5" class="edge">
<title>[21]Vending Machine Model[14]Selecting Item&#45;&gt;[21]Vending Machine Model[14]Selecting Item[11]Insert More</title>
<path fill="none" stroke="blue" d="M333.08,-231.7C331.95,-220.68 331.97,-206.5 333.16,-195.62"/>
</g>
<!-- [21]Vending Machine Model[14]Selecting Item[24]Purchase Drink (150 Yen) -->
<g id="node6" class="node">
<title>[21]Vending Machine Model[14]Selecting Item[24]Purchase Drink (150 Yen)</title>
<text xml:space="preserve" text-anchor="middle" x="517" y="-173.32" font-family="Times,serif" font-size="14.00">[Purchase Drink (150 Yen)]</text>
</g>
<!-- [21]Vending Machine Model[14]Selecting Item&#45;&gt;[21]Vending Machine Model[14]Selecting Item[24]Purchase Drink (150 Yen) -->
<g id="edge7" class="edge">
<title>[21]Vending Machine Model[14]Selecting Item&#45;&gt;[21]Vending Machine Model[14]Selecting Item[24]Purchase Drink (150 Yen)</title>
<path fill="none" stroke="blue" d="M383.46,-231.52C411.16,-220.62 446.61,-206.68 474.03,-195.9"/>
</g>
<!-- [21]Vending Machine Model[14]Selecting Item[18]Press Return Lever -->
<g id="node7" class="node">
<title>[21]Vending Machine Model[14]Selecting Item[18]Press Return Lever</title>
<text xml:space="preserve" text-anchor="middle" x="159" y="-173.32" font-family="Times,serif" font-size="14.00">[Press Return Lever]</text>
</g>
<!-- [21]Vending Machine Model[14]Selecting Item&#45;&gt;[21]Vending Machine Model[14]Selecting Item[18]Press Return Lever -->
<g id="edge9" class="edge">
<title>[21]Vending Machine Model[14]Selecting Item&#45;&gt;[21]Vending Machine Model[14]Selecting Item[18]Press Return Lever</title>
<path fill="none" stroke="blue" d="M294.04,-231.52C266.03,-220.62 230.18,-206.68 202.45,-195.9"/>
</g>
<!-- [21]Vending Machine Model[14]Selecting Item[11]Insert More&#45;&gt;[21]Vending Machine Model[14]Selecting Item -->
<g id="edge6" class="edge">
<title>[21]Vending Machine Model[14]Selecting Item[11]Insert More&#45;&gt;[21]Vending Machine Model[14]Selecting Item</title>
<path fill="none" stroke="blue" d="M344.84,-195.62C345.65,-203.02 345.92,-211.94 345.65,-220.35"/>
<polygon fill="blue" stroke="blue" points="342.17,-219.98 345.01,-230.19 349.15,-220.43 342.17,-219.98"/>
</g>
<!-- [21]Vending Machine Model[15]Dispensing Item -->
<g id="node8" class="node">
<title>[21]Vending Machine Model[15]Dispensing Item</title>
<path fill="white" stroke="black" d="M528.75,-124C528.75,-124 391.25,-124 391.25,-124 385.25,-124 379.25,-118 379.25,-112 379.25,-112 379.25,-100 379.25,-100 379.25,-94 385.25,-88 391.25,-88 391.25,-88 528.75,-88 528.75,-88 534.75,-88 540.75,-94 540.75,-100 540.75,-100 540.75,-112 540.75,-112 540.75,-118 534.75,-124 528.75,-124"/>
<text xml:space="preserve" text-anchor="middle" x="460" y="-103.2" font-family="Times,serif" font-size="14.00">【Dispensing Item】</text>
</g>
<!-- [21]Vending Machine Model[14]Selecting Item[24]Purchase Drink (150 Yen)&#45;&gt;[21]Vending Machine Model[15]Dispensing Item -->
<g id="edge8" class="edge">
<title>[21]Vending Machine Model[14]Selecting Item[24]Purchase Drink (150 Yen)&#45;&gt;[21]Vending Machine Model[15]Dispensing Item</title>
<path fill="none" stroke="blue" d="M503.2,-160.05C496.58,-151.92 488.5,-142 481.12,-132.94"/>
<polygon fill="blue" stroke="blue" points="484.05,-130.99 475.02,-125.45 478.62,-135.41 484.05,-130.99"/>
</g>
<!-- [21]Vending Machine Model[16]Returning Change -->
<g id="node11" class="node">
<title>[21]Vending Machine Model[16]Returning Change</title>
<path fill="white" stroke="black" d="M232.5,-124C232.5,-124 81.5,-124 81.5,-124 75.5,-124 69.5,-118 69.5,-112 69.5,-112 69.5,-100 69.5,-100 69.5,-94 75.5,-88 81.5,-88 81.5,-88 232.5,-88 232.5,-88 238.5,-88 244.5,-94 244.5,-100 244.5,-100 244.5,-112 244.5,-112 244.5,-118 238.5,-124 232.5,-124"/>
<text xml:space="preserve" text-anchor="middle" x="157" y="-103.2" font-family="Times,serif" font-size="14.00">【Returning Change】</text>
</g>
<!-- [21]Vending Machine Model[14]Selecting Item[18]Press Return Lever&#45;&gt;[21]Vending Machine Model[16]Returning Change -->
<g id="edge10" class="edge">
<title>[21]Vending Machine Model[14]Selecting Item[18]Press Return Lever&#45;&gt;[21]Vending Machine Model[16]Returning Change</title>
<path fill="none" stroke="blue" d="M158.52,-160.05C158.31,-152.68 158.05,-143.84 157.81,-135.51"/>
<polygon fill="blue" stroke="blue" points="161.32,-135.68 157.54,-125.79 154.32,-135.88 161.32,-135.68"/>
</g>
<!-- [21]Vending Machine Model[15]Dispensing Item[34]Dispense Done (Remaining Inserted) -->
<g id="node9" class="node">
<title>[21]Vending Machine Model[15]Dispensing Item[34]Dispense Done (Remaining Inserted)</title>
<text xml:space="preserve" text-anchor="middle" x="344" y="-29.32" font-family="Times,serif" font-size="14.00">[Dispense Done (Remaining Inserted)]</text>
</g>
<!-- [21]Vending Machine Model[15]Dispensing Item&#45;&gt;[21]Vending Machine Model[15]Dispensing Item[34]Dispense Done (Remaining Inserted) -->
<g id="edge11" class="edge">
<title>[21]Vending Machine Model[15]Dispensing Item&#45;&gt;[21]Vending Machine Model[15]Dispensing Item[34]Dispense Done (Remaining Inserted)</title>
<path fill="none" stroke="red" d="M431.03,-87.52C412.91,-76.58 389.7,-62.58 371.8,-51.78"/>
</g>
<!-- [21]Vending Machine Model[15]Dispensing Item[25]Dispense Done (Just Zero) -->
<g id="node10" class="node">
<title>[21]Vending Machine Model[15]Dispensing Item[25]Dispense Done (Just Zero)</title>
<text xml:space="preserve" text-anchor="middle" x="613" y="-29.32" font-family="Times,serif" font-size="14.00">[Dispense Done (Just Zero)]</text>
</g>
<!-- [21]Vending Machine Model[15]Dispensing Item&#45;&gt;[21]Vending Machine Model[15]Dispensing Item[25]Dispense Done (Just Zero) -->
<g id="edge13" class="edge">
<title>[21]Vending Machine Model[15]Dispensing Item&#45;&gt;[21]Vending Machine Model[15]Dispensing Item[25]Dispense Done (Just Zero)</title>
<path fill="none" stroke="red" d="M498.21,-87.52C522.02,-76.62 552.5,-62.68 576.06,-51.9"/>
</g>
<!-- [21]Vending Machine Model[15]Dispensing Item[34]Dispense Done (Remaining Inserted)&#45;&gt;[21]Vending Machine Model[14]Selecting Item -->
<g id="edge12" class="edge">
<title>[21]Vending Machine Model[15]Dispensing Item[34]Dispense Done (Remaining Inserted)&#45;&gt;[21]Vending Machine Model[14]Selecting Item</title>
<path fill="none" stroke="red" d="M330.71,-51.97C313.67,-74.94 284.99,-117.88 274,-160 269.96,-175.48 267.14,-181.55 274,-196 279.36,-207.28 288.42,-216.95 298.1,-224.82"/>
<polygon fill="red" stroke="red" points="295.76,-227.44 305.87,-230.63 299.96,-221.84 295.76,-227.44"/>
</g>
<!-- [21]Vending Machine Model[15]Dispensing Item[25]Dispense Done (Just Zero)&#45;&gt;[21]Vending Machine Model[22]Idle (Accepting Coins) -->
<g id="edge14" class="edge">
<title>[21]Vending Machine Model[15]Dispensing Item[25]Dispense Done (Just Zero)&#45;&gt;[21]Vending Machine Model[22]Idle (Accepting Coins)</title>
<path fill="none" stroke="red" d="M641.57,-51.87C654.27,-60.92 668.11,-73.26 676,-88 694.79,-123.09 686,-137.2 686,-177 686,-251 686,-251 686,-251 686,-312.81 620.98,-350.71 566.41,-371.63"/>
<polygon fill="red" stroke="red" points="565.26,-368.33 557.08,-375.07 567.68,-374.89 565.26,-368.33"/>
</g>
<!-- [21]Vending Machine Model[16]Returning Change[17]Change Dispatched -->
<g id="node12" class="node">
<title>[21]Vending Machine Model[16]Returning Change[17]Change Dispatched</title>
<text xml:space="preserve" text-anchor="middle" x="99" y="-29.32" font-family="Times,serif" font-size="14.00">[Change Dispatched]</text>
</g>
<!-- [21]Vending Machine Model[16]Returning Change&#45;&gt;[21]Vending Machine Model[16]Returning Change[17]Change Dispatched -->
<g id="edge15" class="edge">
<title>[21]Vending Machine Model[16]Returning Change&#45;&gt;[21]Vending Machine Model[16]Returning Change[17]Change Dispatched</title>
<path fill="none" stroke="red" d="M142.66,-87.7C133.54,-76.68 121.79,-62.5 112.77,-51.62"/>
</g>
<!-- [21]Vending Machine Model[16]Returning Change[17]Change Dispatched&#45;&gt;[21]Vending Machine Model[22]Idle (Accepting Coins) -->
<g id="edge16" class="edge">
<title>[21]Vending Machine Model[16]Returning Change[17]Change Dispatched&#45;&gt;[21]Vending Machine Model[22]Idle (Accepting Coins)</title>
<path fill="none" stroke="red" d="M83.57,-51.84C75.48,-61.67 66.19,-74.71 61,-88 46.49,-125.12 50,-137.14 50,-177 50,-251 50,-251 50,-251 50,-320.35 249.38,-360.56 380.63,-379.52"/>
<polygon fill="red" stroke="red" points="380.03,-382.97 390.42,-380.91 381.01,-376.04 380.03,-382.97"/>
</g>
</g>
</svg>
