<?xml version="1.0" encoding="UTF-8" standalone="no"?>
<!DOCTYPE svg PUBLIC "-//W3C//DTD SVG 1.1//EN"
 "http://www.w3.org/Graphics/SVG/1.1/DTD/svg11.dtd">
<!-- Generated by graphviz version 14.1.1 (20251213.1925)
 -->
<!-- Title: G Pages: 1 -->
<svg width="744pt" height="515pt"
 viewBox="0.00 0.00 744.00 515.00" xmlns="http://www.w3.org/2000/svg" xmlns:xlink="http://www.w3.org/1999/xlink">
<g id="graph0" class="graph" transform="scale(1 1) rotate(0) translate(4 511.25)">
<title>G</title>
<polygon fill="white" stroke="none" points="-4,4 -4,-511.25 740,-511.25 740,4 -4,4"/>
<g id="clust1" class="cluster">
<title>cluster_[21]Vending Machine Model</title>
<polygon fill="none" stroke="black" points="8,-8 8,-499.25 728,-499.25 728,-8 8,-8"/>
<text xml:space="preserve" text-anchor="middle" x="368" y="-481.95" font-family="Times,serif" font-size="14.00">Vending Machine Model</text>
</g>
<!-- [21]Vending Machine Model[22]Idle (Accepting Coins) -->
<g id="node1" class="node">
<title>[21]Vending Machine Model[22]Idle (Accepting Coins)</title>
<path fill="white" stroke="black" d="M531.62,-466C531.62,-466 354.38,-466 354.38,-466 348.38,-466 342.38,-460 342.38,-454 342.38,-454 342.38,-442 342.38,-442 342.38,-436 348.38,-430 354.38,-430 354.38,-430 531.62,-430 531.62,-430 537.62,-430 543.62,-436 543.62,-442 543.62,-442 543.62,-454 543.62,-454 543.62,-460 537.62,-466 531.62,-466"/>
<text xml:space="preserve" text-anchor="middle" x="443" y="-445.2" font-family="Times,serif" font-size="14.00">【Idle (Accepting Coins)】</text>
</g>
<!-- [21]Vending Machine Model[22]Idle (Accepting Coins)[14]Insert 100 Yen -->
<g id="node2" class="node">
<title>[21]Vending Machine Model[22]Idle (Accepting Coins)[14]Insert 100 Yen</title>
<text xml:space="preserve" text-anchor="middle" x="373" y="-376.7" font-family="Times,serif" font-size="14.00">[Insert 100 Yen]</text>
<text xml:space="preserve" text-anchor="middle" x="373" y="-359.45" font-family="Times,serif" font-size="14.00">when: (can&#45;insert? 100)</text>
<text xml:space="preserve" text-anchor="middle" x="373" y="-342.2" font-family="Times,serif" font-size="14.00">trans: (insert&#45;money 100)</text>
</g>
<!-- [21]Vending Machine Model[22]Idle (Accepting Coins)&#45;&gt;[21]Vending Machine Model[22]Idle (Accepting Coins)[14]Insert 100 Yen -->
<g id="edge1" class="edge">
<title>[21]Vending Machine Model[22]Idle (Accepting Coins)&#45;&gt;[21]Vending Machine Model[22]Idle (Accepting Coins)[14]Insert 100 Yen</title>
<path fill="none" stroke="blue" d="M428.15,-429.64C419.25,-419.22 407.69,-405.7 397.46,-393.74"/>
</g>
<!-- [21]Vending Machine Model[22]Idle (Accepting Coins)[9]Walk Away -->
<g id="node3" class="node">
<title>[21]Vending Machine Model[22]Idle (Accepting Coins)[9]Walk Away</title>
<text xml:space="preserve" text-anchor="middle" x="602" y="-275.57" font-family="Times,serif" font-size="14.00">[Walk Away]</text>
</g>
<!-- [21]Vending Machine Model[22]Idle (Accepting Coins)&#45;&gt;[21]Vending Machine Model[22]Idle (Accepting Coins)[9]Walk Away -->
<g id="edge3" class="edge">
<title>[21]Vending Machine Model[22]Idle (Accepting Coins)&#45;&gt;[21]Vending Machine Model[22]Idle (Accepting Coins)[9]Walk Away</title>
<path fill="none" stroke="blue" d="M459.72,-429.58C490.49,-397.49 555.73,-329.48 585.98,-297.95"/>
</g>
<!-- [21]Vending Machine Model[14]Selecting Item -->
<g id="node4" class="node">
<title>[21]Vending Machine Model[14]Selecting Item</title>
<path fill="white" stroke="black" d="M412.38,-298.25C412.38,-298.25 287.62,-298.25 287.62,-298.25 281.62,-298.25 275.62,-292.25 275.62,-286.25 275.62,-286.25 275.62,-274.25 275.62,-274.25 275.62,-268.25 281.62,-262.25 287.62,-262.25 287.62,-262.25 412.38,-262.25 412.38,-262.25 418.38,-262.25 424.38,-268.25 424.38,-274.25 424.38,-274.25 424.38,-286.25 424.38,-286.25 424.38,-292.25 418.38,-298.25 412.38,-298.25"/>
<text xml:space="preserve" text-anchor="middle" x="350" y="-277.45" font-family="Times,serif" font-size="14.00">【Selecting Item】</text>
</g>
<!-- [21]Vending Machine Model[22]Idle (Accepting Coins)[14]Insert 100 Yen&#45;&gt;[21]Vending Machine Model[14]Selecting Item -->
<g id="edge2" class="edge">
<title>[21]Vending Machine Model[22]Idle (Accepting Coins)[14]Insert 100 Yen&#45;&gt;[21]Vending Machine Model[14]Selecting Item</title>
<path fill="none" stroke="blue" d="M364.96,-334.49C362.67,-326.34 360.18,-317.47 357.9,-309.36"/>
<polygon fill="blue" stroke="blue" points="361.34,-308.67 355.26,-299.99 354.6,-310.56 361.34,-308.67"/>
</g>
<!-- [21]Vending Machine Model[8]Terminal -->
<g id="node13" class="node">
<title>[21]Vending Machine Model[8]Terminal</title>
<path fill="white" stroke="black" d="M685.75,-130.5C685.75,-130.5 602.25,-130.5 602.25,-130.5 596.25,-130.5 590.25,-124.5 590.25,-118.5 590.25,-118.5 590.25,-106.5 590.25,-106.5 590.25,-100.5 596.25,-94.5 602.25,-94.5 602.25,-94.5 685.75,-94.5 685.75,-94.5 691.75,-94.5 697.75,-100.5 697.75,-106.5 697.75,-106.5 697.75,-118.5 697.75,-118.5 697.75,-124.5 691.75,-130.5 685.75,-130.5"/>
<text xml:space="preserve" text-anchor="middle" x="644" y="-109.7" font-family="Times,serif" font-size="14.00">【Terminal】</text>
</g>
<!-- [21]Vending Machine Model[22]Idle (Accepting Coins)[9]Walk Away&#45;&gt;[21]Vending Machine Model[8]Terminal -->
<g id="edge4" class="edge">
<title>[21]Vending Machine Model[22]Idle (Accepting Coins)[9]Walk Away&#45;&gt;[21]Vending Machine Model[8]Terminal</title>
<path fill="none" stroke="blue" d="M645.12,-262.35C660.56,-253.96 676.29,-242.14 685,-226.25 697.76,-202.96 693.59,-191.63 685,-166.5 681.7,-156.85 675.85,-147.59 669.59,-139.59"/>
<polygon fill="blue" stroke="blue" points="672.28,-137.35 663.15,-131.98 666.94,-141.87 672.28,-137.35"/>
</g>
<!-- [21]Vending Machine Model[14]Selecting Item[11]Insert More -->
<g id="node5" class="node">
<title>[21]Vending Machine Model[14]Selecting Item[11]Insert More</title>
<text xml:space="preserve" text-anchor="middle" x="350" y="-208.95" font-family="Times,serif" font-size="14.00">[Insert More]</text>
<text xml:space="preserve" text-anchor="middle" x="350" y="-191.7" font-family="Times,serif" font-size="14.00">when: (can&#45;insert? 100)</text>
<text xml:space="preserve" text-anchor="middle" x="350" y="-174.45" font-family="Times,serif" font-size="14.00">trans: (insert&#45;money 100)</text>
</g>
<!-- [21]Vending Machine Model[14]Selecting Item&#45;&gt;[21]Vending Machine Model[14]Selecting Item[11]Insert More -->
<g id="edge5" class="edge">
<title>[21]Vending Machine Model[14]Selecting Item&#45;&gt;[21]Vending Machine Model[14]Selecting Item[11]Insert More</title>
<path fill="none" stroke="blue" d="M344.36,-261.89C343.25,-251.47 342.97,-237.95 343.53,-225.99"/>
</g>
<!-- [21]Vending Machine Model[14]Selecting Item[24]Purchase Drink (150 Yen) -->
<g id="node6" class="node">
<title>[21]Vending Machine Model[14]Selecting Item[24]Purchase Drink (150 Yen)</title>
<text xml:space="preserve" text-anchor="middle" x="572" y="-208.95" font-family="Times,serif" font-size="14.00">[Purchase Drink (150 Yen)]</text>
<text xml:space="preserve" text-anchor="middle" x="572" y="-191.7" font-family="Times,serif" font-size="14.00">when: (price&#45;met? 150)</text>
<text xml:space="preserve" text-anchor="middle" x="572" y="-174.45" font-family="Times,serif" font-size="14.00">trans: (purchase 150)</text>
</g>
<!-- [21]Vending Machine Model[14]Selecting Item&#45;&gt;[21]Vending Machine Model[14]Selecting Item[24]Purchase Drink (150 Yen) -->
<g id="edge7" class="edge">
<title>[21]Vending Machine Model[14]Selecting Item&#45;&gt;[21]Vending Machine Model[14]Selecting Item[24]Purchase Drink (150 Yen)</title>
<path fill="none" stroke="blue" d="M397.35,-261.79C425.37,-251.45 461.55,-238.11 493.71,-226.25"/>
</g>
<!-- [21]Vending Machine Model[14]Selecting Item[18]Press Return Lever -->
<g id="node7" class="node">
<title>[21]Vending Machine Model[14]Selecting Item[18]Press Return Lever</title>
<text xml:space="preserve" text-anchor="middle" x="127" y="-208.95" font-family="Times,serif" font-size="14.00">[Press Return Lever]</text>
<text xml:space="preserve" text-anchor="middle" x="127" y="-191.7" font-family="Times,serif" font-size="14.00">when: inserted?</text>
<text xml:space="preserve" text-anchor="middle" x="127" y="-174.45" font-family="Times,serif" font-size="14.00">trans: reset&#45;money</text>
</g>
<!-- [21]Vending Machine Model[14]Selecting Item&#45;&gt;[21]Vending Machine Model[14]Selecting Item[18]Press Return Lever -->
<g id="edge9" class="edge">
<title>[21]Vending Machine Model[14]Selecting Item&#45;&gt;[21]Vending Machine Model[14]Selecting Item[18]Press Return Lever</title>
<path fill="none" stroke="blue" d="M302.43,-261.79C274.29,-251.45 237.94,-238.11 205.64,-226.25"/>
</g>
<!-- [21]Vending Machine Model[14]Selecting Item[11]Insert More&#45;&gt;[21]Vending Machine Model[14]Selecting Item -->
<g id="edge6" class="edge">
<title>[21]Vending Machine Model[14]Selecting Item[11]Insert More&#45;&gt;[21]Vending Machine Model[14]Selecting Item</title>
<path fill="none" stroke="blue" d="M356.47,-225.99C356.84,-233.93 356.84,-242.56 356.48,-250.51"/>
<polygon fill="blue" stroke="blue" points="352.99,-250.15 355.75,-260.38 359.97,-250.66 352.99,-250.15"/>
</g>
<!-- [21]Vending Machine Model[15]Dispensing Item -->
<g id="node8" class="node">
<title>[21]Vending Machine Model[15]Dispensing Item</title>
<path fill="white" stroke="black" d="M559.75,-130.5C559.75,-130.5 422.25,-130.5 422.25,-130.5 416.25,-130.5 410.25,-124.5 410.25,-118.5 410.25,-118.5 410.25,-106.5 410.25,-106.5 410.25,-100.5 416.25,-94.5 422.25,-94.5 422.25,-94.5 559.75,-94.5 559.75,-94.5 565.75,-94.5 571.75,-100.5 571.75,-106.5 571.75,-106.5 571.75,-118.5 571.75,-118.5 571.75,-124.5 565.75,-130.5 559.75,-130.5"/>
<text xml:space="preserve" text-anchor="middle" x="491" y="-109.7" font-family="Times,serif" font-size="14.00">【Dispensing Item】</text>
</g>
<!-- [21]Vending Machine Model[14]Selecting Item[24]Purchase Drink (150 Yen)&#45;&gt;[21]Vending Machine Model[15]Dispensing Item -->
<g id="edge8" class="edge">
<title>[21]Vending Machine Model[14]Selecting Item[24]Purchase Drink (150 Yen)&#45;&gt;[21]Vending Machine Model[15]Dispensing Item</title>
<path fill="none" stroke="blue" d="M543.67,-166.74C534.68,-157.65 524.81,-147.68 516.07,-138.84"/>
<polygon fill="blue" stroke="blue" points="518.68,-136.51 509.16,-131.86 513.71,-141.43 518.68,-136.51"/>
</g>
<!-- [21]Vending Machine Model[16]Returning Change -->
<g id="node11" class="node">
<title>[21]Vending Machine Model[16]Returning Change</title>
<path fill="white" stroke="black" d="M200.5,-130.5C200.5,-130.5 49.5,-130.5 49.5,-130.5 43.5,-130.5 37.5,-124.5 37.5,-118.5 37.5,-118.5 37.5,-106.5 37.5,-106.5 37.5,-100.5 43.5,-94.5 49.5,-94.5 49.5,-94.5 200.5,-94.5 200.5,-94.5 206.5,-94.5 212.5,-100.5 212.5,-106.5 212.5,-106.5 212.5,-118.5 212.5,-118.5 212.5,-124.5 206.5,-130.5 200.5,-130.5"/>
<text xml:space="preserve" text-anchor="middle" x="125" y="-109.7" font-family="Times,serif" font-size="14.00">【Returning Change】</text>
</g>
<!-- [21]Vending Machine Model[14]Selecting Item[18]Press Return Lever&#45;&gt;[21]Vending Machine Model[16]Returning Change -->
<g id="edge10" class="edge">
<title>[21]Vending Machine Model[14]Selecting Item[18]Press Return Lever&#45;&gt;[21]Vending Machine Model[16]Returning Change</title>
<path fill="none" stroke="blue" d="M126.3,-166.74C126.11,-158.78 125.89,-150.13 125.7,-142.17"/>
<polygon fill="blue" stroke="blue" points="129.2,-142.21 125.46,-132.3 122.2,-142.38 129.2,-142.21"/>
</g>
<!-- [21]Vending Machine Model[15]Dispensing Item[34]Dispense Done (Remaining Inserted) -->
<g id="node9" class="node">
<title>[21]Vending Machine Model[15]Dispensing Item[34]Dispense Done (Remaining Inserted)</title>
<text xml:space="preserve" text-anchor="middle" x="344" y="-41.2" font-family="Times,serif" font-size="14.00">[Dispense Done (Remaining Inserted)]</text>
<text xml:space="preserve" text-anchor="middle" x="344" y="-23.95" font-family="Times,serif" font-size="14.00">when: inserted?</text>
</g>
<!-- [21]Vending Machine Model[15]Dispensing Item&#45;&gt;[21]Vending Machine Model[15]Dispensing Item[34]Dispense Done (Remaining Inserted) -->
<g id="edge11" class="edge">
<title>[21]Vending Machine Model[15]Dispensing Item&#45;&gt;[21]Vending Machine Model[15]Dispensing Item[34]Dispense Done (Remaining Inserted)</title>
<path fill="none" stroke="red" d="M456.16,-94.14C434.68,-83.44 407.04,-69.66 384.58,-58.47"/>
</g>
<!-- [21]Vending Machine Model[15]Dispensing Item[25]Dispense Done (Just Zero) -->
<g id="node10" class="node">
<title>[21]Vending Machine Model[15]Dispensing Item[25]Dispense Done (Just Zero)</title>
<text xml:space="preserve" text-anchor="middle" x="613" y="-41.2" font-family="Times,serif" font-size="14.00">[Dispense Done (Just Zero)]</text>
<text xml:space="preserve" text-anchor="middle" x="613" y="-23.95" font-family="Times,serif" font-size="14.00">when: (negate inserted?)</text>
</g>
<!-- [21]Vending Machine Model[15]Dispensing Item&#45;&gt;[21]Vending Machine Model[15]Dispensing Item[25]Dispense Done (Just Zero) -->
<g id="edge13" class="edge">
<title>[21]Vending Machine Model[15]Dispensing Item&#45;&gt;[21]Vending Machine Model[15]Dispensing Item[25]Dispense Done (Just Zero)</title>
<path fill="none" stroke="red" d="M519.91,-94.14C537.81,-83.39 560.86,-69.56 579.54,-58.34"/>
</g>
<!-- [21]Vending Machine Model[15]Dispensing Item[34]Dispense Done (Remaining Inserted)&#45;&gt;[21]Vending Machine Model[14]Selecting Item -->
<g id="edge12" class="edge">
<title>[21]Vending Machine Model[15]Dispensing Item[34]Dispense Done (Remaining Inserted)&#45;&gt;[21]Vending Machine Model[14]Selecting Item</title>
<path fill="none" stroke="red" d="M318.42,-58.46C277.39,-93.39 205.08,-167 242,-226.25 250.13,-239.3 262.52,-249.23 276.05,-256.75"/>
<polygon fill="red" stroke="red" points="274.2,-259.74 284.7,-261.13 277.36,-253.49 274.2,-259.74"/>
</g>
<!-- [21]Vending Machine Model[15]Dispensing Item[25]Dispense Done (Just Zero)&#45;&gt;[21]Vending Machine Model[22]Idle (Accepting Coins) -->
<g id="edge14" class="edge">
<title>[21]Vending Machine Model[15]Dispensing Item[25]Dispense Done (Just Zero)&#45;&gt;[21]Vending Machine Model[22]Idle (Accepting Coins)</title>
<path fill="none" stroke="red" d="M665.31,-58.36C681.23,-67.07 697.12,-78.92 707,-94.5 731.13,-132.55 717,-150.32 717,-195.38 717,-281.25 717,-281.25 717,-281.25 717,-362.62 627.43,-405.13 550.72,-426.61"/>
<polygon fill="red" stroke="red" points="550.19,-423.13 541.45,-429.11 552.02,-429.89 550.19,-423.13"/>
</g>
<!-- [21]Vending Machine Model[16]Returning Change[17]Change Dispatched -->
<g id="node12" class="node">
<title>[21]Vending Machine Model[16]Returning Change[17]Change Dispatched</title>
<text xml:space="preserve" text-anchor="middle" x="99" y="-32.58" font-family="Times,serif" font-size="14.00">[Change Dispatched]</text>
</g>
<!-- [21]Vending Machine Model[16]Returning Change&#45;&gt;[21]Vending Machine Model[16]Returning Change[17]Change Dispatched -->
<g id="edge15" class="edge">
<title>[21]Vending Machine Model[16]Returning Change&#45;&gt;[21]Vending Machine Model[16]Returning Change[17]Change Dispatched</title>
<path fill="none" stroke="red" d="M118.84,-94.14C114.66,-82.38 109.17,-66.91 105.03,-55.23"/>
</g>
<!-- [21]Vending Machine Model[16]Returning Change[17]Change Dispatched&#45;&gt;[21]Vending Machine Model[22]Idle (Accepting Coins) -->
<g id="edge16" class="edge">
<title>[21]Vending Machine Model[16]Returning Change[17]Change Dispatched&#45;&gt;[21]Vending Machine Model[22]Idle (Accepting Coins)</title>
<path fill="none" stroke="red" d="M68.33,-55.12C53.93,-64.71 37.99,-78.09 29,-94.5 7.33,-134.05 18,-150.28 18,-195.38 18,-281.25 18,-281.25 18,-281.25 18,-349.38 209.98,-400.8 335.88,-427.2"/>
<polygon fill="red" stroke="red" points="335.11,-430.61 345.61,-429.21 336.53,-423.76 335.11,-430.61"/>
</g>
</g>
</svg>
