<?xml version="1.0" encoding="UTF-8" standalone="no"?>
<!DOCTYPE svg PUBLIC "-//W3C//DTD SVG 1.1//EN"
 "http://www.w3.org/Graphics/SVG/1.1/DTD/svg11.dtd">
<!-- Generated by graphviz version 14.1.1 (20251213.1925)
 -->
<!-- Title: G Pages: 1 -->
<svg width="1002pt" height="745pt"
 viewBox="0.00 0.00 1002.00 745.00" xmlns="http://www.w3.org/2000/svg" xmlns:xlink="http://www.w3.org/1999/xlink">
<g id="graph0" class="graph" transform="scale(1 1) rotate(0) translate(4 740.5)">
<title>G</title>
<polygon fill="white" stroke="none" points="-4,4 -4,-740.5 998,-740.5 998,4 -4,4"/>
<g id="clust1" class="cluster">
<title>cluster_[8]Terminal</title>
<polygon fill="none" stroke="black" points="749,-8 749,-229.25 917,-229.25 917,-8 749,-8"/>
<text xml:space="preserve" text-anchor="middle" x="833" y="-211.95" font-family="Times,serif" font-size="14.00">Terminal</text>
</g>
<g id="clust2" class="cluster">
<title>cluster_[21]Vending Machine Model</title>
<polygon fill="none" stroke="black" points="8,-237.25 8,-728.5 986,-728.5 986,-237.25 8,-237.25"/>
<text xml:space="preserve" text-anchor="middle" x="497" y="-711.2" font-family="Times,serif" font-size="14.00">Vending Machine Model</text>
</g>
<!-- [8]Terminal[14]Terminal Entry -->
<g id="node1" class="node">
<title>[8]Terminal[14]Terminal Entry</title>
<path fill="white" stroke="black" d="M897.25,-196C897.25,-196 768.75,-196 768.75,-196 762.75,-196 756.75,-190 756.75,-184 756.75,-184 756.75,-172 756.75,-172 756.75,-166 762.75,-160 768.75,-160 768.75,-160 897.25,-160 897.25,-160 903.25,-160 909.25,-166 909.25,-172 909.25,-172 909.25,-184 909.25,-184 909.25,-190 903.25,-196 897.25,-196"/>
<text xml:space="preserve" text-anchor="middle" x="833" y="-175.2" font-family="Times,serif" font-size="14.00">【Terminal Entry】</text>
</g>
<!-- [8]Terminal[14]Terminal Entry[9]Terminate -->
<g id="node2" class="node">
<title>[8]Terminal[14]Terminal Entry[9]Terminate</title>
<text xml:space="preserve" text-anchor="middle" x="833" y="-101.33" font-family="Times,serif" font-size="14.00">[Terminate]</text>
</g>
<!-- [8]Terminal[14]Terminal Entry&#45;&gt;[8]Terminal[14]Terminal Entry[9]Terminate -->
<g id="edge17" class="edge">
<title>[8]Terminal[14]Terminal Entry&#45;&gt;[8]Terminal[14]Terminal Entry[9]Terminate</title>
<path fill="none" stroke="red" d="M833,-159.7C833,-148.68 833,-134.5 833,-123.62"/>
</g>
<!-- [8]Terminal[8]Terminal -->
<g id="node3" class="node">
<title>[8]Terminal[8]Terminal</title>
<path fill="white" stroke="black" d="M874.75,-52C874.75,-52 791.25,-52 791.25,-52 785.25,-52 779.25,-46 779.25,-40 779.25,-40 779.25,-28 779.25,-28 779.25,-22 785.25,-16 791.25,-16 791.25,-16 874.75,-16 874.75,-16 880.75,-16 886.75,-22 886.75,-28 886.75,-28 886.75,-40 886.75,-40 886.75,-46 880.75,-52 874.75,-52"/>
<text xml:space="preserve" text-anchor="middle" x="833" y="-31.2" font-family="Times,serif" font-size="14.00">【Terminal】</text>
</g>
<!-- [8]Terminal[14]Terminal Entry[9]Terminate&#45;&gt;[8]Terminal[8]Terminal -->
<g id="edge18" class="edge">
<title>[8]Terminal[14]Terminal Entry[9]Terminate&#45;&gt;[8]Terminal[8]Terminal</title>
<path fill="none" stroke="red" d="M833,-88.05C833,-80.68 833,-71.84 833,-63.51"/>
<polygon fill="red" stroke="red" points="836.5,-63.79 833,-53.79 829.5,-63.79 836.5,-63.79"/>
</g>
<!-- [21]Vending Machine Model[22]Idle (Accepting Coins) -->
<g id="node4" class="node">
<title>[21]Vending Machine Model[22]Idle (Accepting Coins)</title>
<path fill="white" stroke="black" d="M747.62,-695.25C747.62,-695.25 570.38,-695.25 570.38,-695.25 564.38,-695.25 558.38,-689.25 558.38,-683.25 558.38,-683.25 558.38,-671.25 558.38,-671.25 558.38,-665.25 564.38,-659.25 570.38,-659.25 570.38,-659.25 747.62,-659.25 747.62,-659.25 753.62,-659.25 759.62,-665.25 759.62,-671.25 759.62,-671.25 759.62,-683.25 759.62,-683.25 759.62,-689.25 753.62,-695.25 747.62,-695.25"/>
<text xml:space="preserve" text-anchor="middle" x="659" y="-674.45" font-family="Times,serif" font-size="14.00">【Idle (Accepting Coins)】</text>
</g>
<!-- [21]Vending Machine Model[22]Idle (Accepting Coins)[12]Insert Money -->
<g id="node5" class="node">
<title>[21]Vending Machine Model[22]Idle (Accepting Coins)[12]Insert Money</title>
<text xml:space="preserve" text-anchor="middle" x="379" y="-605.95" font-family="Times,serif" font-size="14.00">[Insert Money]</text>
<text xml:space="preserve" text-anchor="middle" x="379" y="-588.7" font-family="Times,serif" font-size="14.00">when: (can&#45;insert? 100)</text>
<text xml:space="preserve" text-anchor="middle" x="379" y="-571.45" font-family="Times,serif" font-size="14.00">trans: insert&#45;money</text>
</g>
<!-- [21]Vending Machine Model[22]Idle (Accepting Coins)&#45;&gt;[21]Vending Machine Model[22]Idle (Accepting Coins)[12]Insert Money -->
<g id="edge1" class="edge">
<title>[21]Vending Machine Model[22]Idle (Accepting Coins)&#45;&gt;[21]Vending Machine Model[22]Idle (Accepting Coins)[12]Insert Money</title>
<path fill="none" stroke="blue" d="M599.28,-658.79C561.93,-647.87 513.08,-633.58 470.88,-621.24"/>
</g>
<!-- [21]Vending Machine Model[22]Idle (Accepting Coins)[9]Walk Away -->
<g id="node6" class="node">
<title>[21]Vending Machine Model[22]Idle (Accepting Coins)[9]Walk Away</title>
<text xml:space="preserve" text-anchor="middle" x="833" y="-429.57" font-family="Times,serif" font-size="14.00">[Walk Away]</text>
<text xml:space="preserve" text-anchor="middle" x="833" y="-412.32" font-family="Times,serif" font-size="14.00">trans: vending&#45;graph&#45;&gt;terminal&#45;graph</text>
</g>
<!-- [21]Vending Machine Model[22]Idle (Accepting Coins)&#45;&gt;[21]Vending Machine Model[22]Idle (Accepting Coins)[9]Walk Away -->
<g id="edge3" class="edge">
<title>[21]Vending Machine Model[22]Idle (Accepting Coins)&#45;&gt;[21]Vending Machine Model[22]Idle (Accepting Coins)[9]Walk Away</title>
<path fill="none" stroke="blue" d="M670.96,-659.09C702.13,-614.37 785.76,-494.4 819.05,-446.64"/>
</g>
<!-- [21]Vending Machine Model[14]Selecting Item -->
<g id="node7" class="node">
<title>[21]Vending Machine Model[14]Selecting Item</title>
<path fill="white" stroke="black" d="M342.38,-527.5C342.38,-527.5 217.62,-527.5 217.62,-527.5 211.62,-527.5 205.62,-521.5 205.62,-515.5 205.62,-515.5 205.62,-503.5 205.62,-503.5 205.62,-497.5 211.62,-491.5 217.62,-491.5 217.62,-491.5 342.38,-491.5 342.38,-491.5 348.38,-491.5 354.38,-497.5 354.38,-503.5 354.38,-503.5 354.38,-515.5 354.38,-515.5 354.38,-521.5 348.38,-527.5 342.38,-527.5"/>
<text xml:space="preserve" text-anchor="middle" x="280" y="-506.7" font-family="Times,serif" font-size="14.00">【Selecting Item】</text>
</g>
<!-- [21]Vending Machine Model[22]Idle (Accepting Coins)[12]Insert Money&#45;&gt;[21]Vending Machine Model[14]Selecting Item -->
<g id="edge2" class="edge">
<title>[21]Vending Machine Model[22]Idle (Accepting Coins)[12]Insert Money&#45;&gt;[21]Vending Machine Model[14]Selecting Item</title>
<path fill="none" stroke="blue" d="M344.1,-563.51C332.88,-554.23 320.56,-544.04 309.74,-535.1"/>
<polygon fill="blue" stroke="blue" points="312.17,-532.56 302.23,-528.89 307.71,-537.96 312.17,-532.56"/>
</g>
<!-- [21]Vending Machine Model[22]Idle (Accepting Coins)[9]Walk Away&#45;&gt;[8]Terminal[14]Terminal Entry -->
<g id="edge4" class="edge">
<title>[21]Vending Machine Model[22]Idle (Accepting Coins)[9]Walk Away&#45;&gt;[8]Terminal[14]Terminal Entry</title>
<path fill="none" stroke="blue" d="M833,-404.52C833,-361.02 833,-258.01 833,-207.68"/>
<polygon fill="blue" stroke="blue" points="836.5,-207.88 833,-197.88 829.5,-207.88 836.5,-207.88"/>
</g>
<!-- [21]Vending Machine Model[14]Selecting Item[11]Insert More -->
<g id="node8" class="node">
<title>[21]Vending Machine Model[14]Selecting Item[11]Insert More</title>
<text xml:space="preserve" text-anchor="middle" x="108" y="-438.2" font-family="Times,serif" font-size="14.00">[Insert More]</text>
<text xml:space="preserve" text-anchor="middle" x="108" y="-420.95" font-family="Times,serif" font-size="14.00">when: (can&#45;insert? 100)</text>
<text xml:space="preserve" text-anchor="middle" x="108" y="-403.7" font-family="Times,serif" font-size="14.00">trans: insert&#45;money</text>
</g>
<!-- [21]Vending Machine Model[14]Selecting Item&#45;&gt;[21]Vending Machine Model[14]Selecting Item[11]Insert More -->
<g id="edge5" class="edge">
<title>[21]Vending Machine Model[14]Selecting Item&#45;&gt;[21]Vending Machine Model[14]Selecting Item[11]Insert More</title>
<path fill="none" stroke="blue" d="M237.89,-491.14C214.98,-480.76 186.47,-467.32 161.97,-455.4"/>
</g>
<!-- [21]Vending Machine Model[14]Selecting Item[24]Purchase Drink (150 Yen) -->
<g id="node9" class="node">
<title>[21]Vending Machine Model[14]Selecting Item[24]Purchase Drink (150 Yen)</title>
<text xml:space="preserve" text-anchor="middle" x="342" y="-438.2" font-family="Times,serif" font-size="14.00">[Purchase Drink (150 Yen)]</text>
<text xml:space="preserve" text-anchor="middle" x="342" y="-420.95" font-family="Times,serif" font-size="14.00">when: (price&#45;met? 150)</text>
<text xml:space="preserve" text-anchor="middle" x="342" y="-403.7" font-family="Times,serif" font-size="14.00">trans: (purchase 150)</text>
</g>
<!-- [21]Vending Machine Model[14]Selecting Item&#45;&gt;[21]Vending Machine Model[14]Selecting Item[24]Purchase Drink (150 Yen) -->
<g id="edge7" class="edge">
<title>[21]Vending Machine Model[14]Selecting Item&#45;&gt;[21]Vending Machine Model[14]Selecting Item[24]Purchase Drink (150 Yen)</title>
<path fill="none" stroke="blue" d="M293.15,-491.14C301.04,-480.72 311.27,-467.2 320.33,-455.24"/>
</g>
<!-- [21]Vending Machine Model[14]Selecting Item[18]Press Return Lever -->
<g id="node10" class="node">
<title>[21]Vending Machine Model[14]Selecting Item[18]Press Return Lever</title>
<text xml:space="preserve" text-anchor="middle" x="547" y="-438.2" font-family="Times,serif" font-size="14.00">[Press Return Lever]</text>
<text xml:space="preserve" text-anchor="middle" x="547" y="-420.95" font-family="Times,serif" font-size="14.00">when: inserted?</text>
<text xml:space="preserve" text-anchor="middle" x="547" y="-403.7" font-family="Times,serif" font-size="14.00">trans: reset&#45;money</text>
</g>
<!-- [21]Vending Machine Model[14]Selecting Item&#45;&gt;[21]Vending Machine Model[14]Selecting Item[18]Press Return Lever -->
<g id="edge9" class="edge">
<title>[21]Vending Machine Model[14]Selecting Item&#45;&gt;[21]Vending Machine Model[14]Selecting Item[18]Press Return Lever</title>
<path fill="none" stroke="blue" d="M337.98,-491.1C372.08,-480.83 416.02,-467.52 455,-455.5 458.2,-454.51 461.46,-453.5 464.75,-452.48"/>
</g>
<!-- [21]Vending Machine Model[14]Selecting Item[11]Insert More&#45;&gt;[21]Vending Machine Model[14]Selecting Item -->
<g id="edge6" class="edge">
<title>[21]Vending Machine Model[14]Selecting Item[11]Insert More&#45;&gt;[21]Vending Machine Model[14]Selecting Item</title>
<path fill="none" stroke="blue" d="M174.93,-455.4C196.53,-465.46 219.8,-476.6 238.97,-486.07"/>
<polygon fill="blue" stroke="blue" points="237.29,-489.14 247.8,-490.46 240.41,-482.87 237.29,-489.14"/>
</g>
<!-- [21]Vending Machine Model[15]Dispensing Item -->
<g id="node11" class="node">
<title>[21]Vending Machine Model[15]Dispensing Item</title>
<path fill="white" stroke="black" d="M410.75,-359.75C410.75,-359.75 273.25,-359.75 273.25,-359.75 267.25,-359.75 261.25,-353.75 261.25,-347.75 261.25,-347.75 261.25,-335.75 261.25,-335.75 261.25,-329.75 267.25,-323.75 273.25,-323.75 273.25,-323.75 410.75,-323.75 410.75,-323.75 416.75,-323.75 422.75,-329.75 422.75,-335.75 422.75,-335.75 422.75,-347.75 422.75,-347.75 422.75,-353.75 416.75,-359.75 410.75,-359.75"/>
<text xml:space="preserve" text-anchor="middle" x="342" y="-338.95" font-family="Times,serif" font-size="14.00">【Dispensing Item】</text>
</g>
<!-- [21]Vending Machine Model[14]Selecting Item[24]Purchase Drink (150 Yen)&#45;&gt;[21]Vending Machine Model[15]Dispensing Item -->
<g id="edge8" class="edge">
<title>[21]Vending Machine Model[14]Selecting Item[24]Purchase Drink (150 Yen)&#45;&gt;[21]Vending Machine Model[15]Dispensing Item</title>
<path fill="none" stroke="blue" d="M342,-395.99C342,-388.03 342,-379.38 342,-371.42"/>
<polygon fill="blue" stroke="blue" points="345.5,-371.55 342,-361.55 338.5,-371.55 345.5,-371.55"/>
</g>
<!-- [21]Vending Machine Model[16]Returning Change -->
<g id="node14" class="node">
<title>[21]Vending Machine Model[16]Returning Change</title>
<path fill="white" stroke="black" d="M617.5,-359.75C617.5,-359.75 466.5,-359.75 466.5,-359.75 460.5,-359.75 454.5,-353.75 454.5,-347.75 454.5,-347.75 454.5,-335.75 454.5,-335.75 454.5,-329.75 460.5,-323.75 466.5,-323.75 466.5,-323.75 617.5,-323.75 617.5,-323.75 623.5,-323.75 629.5,-329.75 629.5,-335.75 629.5,-335.75 629.5,-347.75 629.5,-347.75 629.5,-353.75 623.5,-359.75 617.5,-359.75"/>
<text xml:space="preserve" text-anchor="middle" x="542" y="-338.95" font-family="Times,serif" font-size="14.00">【Returning Change】</text>
</g>
<!-- [21]Vending Machine Model[14]Selecting Item[18]Press Return Lever&#45;&gt;[21]Vending Machine Model[16]Returning Change -->
<g id="edge10" class="edge">
<title>[21]Vending Machine Model[14]Selecting Item[18]Press Return Lever&#45;&gt;[21]Vending Machine Model[16]Returning Change</title>
<path fill="none" stroke="blue" d="M545.25,-395.99C544.77,-388.03 544.24,-379.38 543.75,-371.42"/>
<polygon fill="blue" stroke="blue" points="547.25,-371.31 543.15,-361.54 540.26,-371.74 547.25,-371.31"/>
</g>
<!-- [21]Vending Machine Model[15]Dispensing Item[34]Dispense Done (Remaining Inserted) -->
<g id="node12" class="node">
<title>[21]Vending Machine Model[15]Dispensing Item[34]Dispense Done (Remaining Inserted)</title>
<text xml:space="preserve" text-anchor="middle" x="206" y="-270.45" font-family="Times,serif" font-size="14.00">[Dispense Done (Remaining Inserted)]</text>
<text xml:space="preserve" text-anchor="middle" x="206" y="-253.2" font-family="Times,serif" font-size="14.00">when: inserted?</text>
</g>
<!-- [21]Vending Machine Model[15]Dispensing Item&#45;&gt;[21]Vending Machine Model[15]Dispensing Item[34]Dispense Done (Remaining Inserted) -->
<g id="edge11" class="edge">
<title>[21]Vending Machine Model[15]Dispensing Item&#45;&gt;[21]Vending Machine Model[15]Dispensing Item[34]Dispense Done (Remaining Inserted)</title>
<path fill="none" stroke="red" d="M309.77,-323.39C289.82,-312.64 264.12,-298.81 243.29,-287.59"/>
</g>
<!-- [21]Vending Machine Model[15]Dispensing Item[25]Dispense Done (Just Zero) -->
<g id="node13" class="node">
<title>[21]Vending Machine Model[15]Dispensing Item[25]Dispense Done (Just Zero)</title>
<text xml:space="preserve" text-anchor="middle" x="475" y="-270.45" font-family="Times,serif" font-size="14.00">[Dispense Done (Just Zero)]</text>
<text xml:space="preserve" text-anchor="middle" x="475" y="-253.2" font-family="Times,serif" font-size="14.00">when: (negate inserted?)</text>
</g>
<!-- [21]Vending Machine Model[15]Dispensing Item&#45;&gt;[21]Vending Machine Model[15]Dispensing Item[25]Dispense Done (Just Zero) -->
<g id="edge13" class="edge">
<title>[21]Vending Machine Model[15]Dispensing Item&#45;&gt;[21]Vending Machine Model[15]Dispensing Item[25]Dispense Done (Just Zero)</title>
<path fill="none" stroke="red" d="M373.52,-323.39C393.03,-312.64 418.16,-298.81 438.53,-287.59"/>
</g>
<!-- [21]Vending Machine Model[15]Dispensing Item[34]Dispense Done (Remaining Inserted)&#45;&gt;[21]Vending Machine Model[14]Selecting Item -->
<g id="edge12" class="edge">
<title>[21]Vending Machine Model[15]Dispensing Item[34]Dispense Done (Remaining Inserted)&#45;&gt;[21]Vending Machine Model[14]Selecting Item</title>
<path fill="none" stroke="red" d="M204.43,-287.58C202.49,-323.25 202.24,-399.23 229,-455.5 233.88,-465.77 241.54,-475.31 249.45,-483.38"/>
<polygon fill="red" stroke="red" points="246.94,-485.82 256.59,-490.19 251.77,-480.76 246.94,-485.82"/>
</g>
<!-- [21]Vending Machine Model[15]Dispensing Item[25]Dispense Done (Just Zero)&#45;&gt;[21]Vending Machine Model[22]Idle (Accepting Coins) -->
<g id="edge14" class="edge">
<title>[21]Vending Machine Model[15]Dispensing Item[25]Dispense Done (Just Zero)&#45;&gt;[21]Vending Machine Model[22]Idle (Accepting Coins)</title>
<path fill="none" stroke="red" d="M581.47,-284.57C603.51,-292.93 624.43,-305.34 639,-323.75 666.96,-359.07 649,-379.57 649,-424.62 649,-510.5 649,-510.5 649,-510.5 649,-558.77 653.28,-614.8 656.24,-647.79"/>
<polygon fill="red" stroke="red" points="652.71,-647.71 657.12,-657.34 659.68,-647.06 652.71,-647.71"/>
</g>
<!-- [21]Vending Machine Model[16]Returning Change[17]Change Dispatched -->
<g id="node15" class="node">
<title>[21]Vending Machine Model[16]Returning Change[17]Change Dispatched</title>
<text xml:space="preserve" text-anchor="middle" x="682" y="-261.82" font-family="Times,serif" font-size="14.00">[Change Dispatched]</text>
</g>
<!-- [21]Vending Machine Model[16]Returning Change&#45;&gt;[21]Vending Machine Model[16]Returning Change[17]Change Dispatched -->
<g id="edge15" class="edge">
<title>[21]Vending Machine Model[16]Returning Change&#45;&gt;[21]Vending Machine Model[16]Returning Change[17]Change Dispatched</title>
<path fill="none" stroke="red" d="M575.18,-323.39C597.66,-311.63 627.22,-296.16 649.54,-284.48"/>
</g>
<!-- [21]Vending Machine Model[16]Returning Change[17]Change Dispatched&#45;&gt;[21]Vending Machine Model[22]Idle (Accepting Coins) -->
<g id="edge16" class="edge">
<title>[21]Vending Machine Model[16]Returning Change[17]Change Dispatched&#45;&gt;[21]Vending Machine Model[22]Idle (Accepting Coins)</title>
<path fill="none" stroke="red" d="M679.68,-284.44C675.94,-313.19 669,-373.44 669,-424.62 669,-510.5 669,-510.5 669,-510.5 669,-558.77 664.72,-614.8 661.76,-647.79"/>
<polygon fill="red" stroke="red" points="658.32,-647.06 660.88,-657.34 665.29,-647.71 658.32,-647.06"/>
</g>
</g>
</svg>
