<?xml version="1.0" encoding="UTF-8" standalone="no"?>
<!DOCTYPE svg PUBLIC "-//W3C//DTD SVG 1.1//EN"
 "http://www.w3.org/Graphics/SVG/1.1/DTD/svg11.dtd">
<!-- Generated by graphviz version 14.1.1 (20251213.1925)
 -->
<!-- Title: G Pages: 1 -->
<svg width="848pt" height="691pt"
 viewBox="0.00 0.00 848.00 691.00" xmlns="http://www.w3.org/2000/svg" xmlns:xlink="http://www.w3.org/1999/xlink">
<g id="graph0" class="graph" transform="scale(1 1) rotate(0) translate(4 686.5)">
<title>G</title>
<polygon fill="white" stroke="none" points="-4,4 -4,-686.5 844,-686.5 844,4 -4,4"/>
<g id="clust1" class="cluster">
<title>cluster_[8]Terminal</title>
<polygon fill="none" stroke="black" points="664,-8 664,-229.25 832,-229.25 832,-8 664,-8"/>
<text xml:space="preserve" text-anchor="middle" x="748" y="-211.95" font-family="Times,serif" font-size="14.00">Terminal</text>
</g>
<g id="clust2" class="cluster">
<title>cluster_[21]Vending Machine Model</title>
<polygon fill="none" stroke="black" points="8,-237.25 8,-674.5 728,-674.5 728,-237.25 8,-237.25"/>
<text xml:space="preserve" text-anchor="middle" x="368" y="-657.2" font-family="Times,serif" font-size="14.00">Vending Machine Model</text>
</g>
<!-- [8]Terminal[14]Terminal Entry -->
<g id="node1" class="node">
<title>[8]Terminal[14]Terminal Entry</title>
<path fill="white" stroke="black" d="M812.25,-196C812.25,-196 683.75,-196 683.75,-196 677.75,-196 671.75,-190 671.75,-184 671.75,-184 671.75,-172 671.75,-172 671.75,-166 677.75,-160 683.75,-160 683.75,-160 812.25,-160 812.25,-160 818.25,-160 824.25,-166 824.25,-172 824.25,-172 824.25,-184 824.25,-184 824.25,-190 818.25,-196 812.25,-196"/>
<text xml:space="preserve" text-anchor="middle" x="748" y="-175.2" font-family="Times,serif" font-size="14.00">【Terminal Entry】</text>
</g>
<!-- [8]Terminal[14]Terminal Entry[9]Terminate -->
<g id="node2" class="node">
<title>[8]Terminal[14]Terminal Entry[9]Terminate</title>
<text xml:space="preserve" text-anchor="middle" x="748" y="-101.33" font-family="Times,serif" font-size="14.00">[Terminate]</text>
</g>
<!-- [8]Terminal[14]Terminal Entry&#45;&gt;[8]Terminal[14]Terminal Entry[9]Terminate -->
<g id="edge17" class="edge">
<title>[8]Terminal[14]Terminal Entry&#45;&gt;[8]Terminal[14]Terminal Entry[9]Terminate</title>
<path fill="none" stroke="red" d="M748,-159.7C748,-148.68 748,-134.5 748,-123.62"/>
</g>
<!-- [8]Terminal[8]Terminal -->
<g id="node3" class="node">
<title>[8]Terminal[8]Terminal</title>
<path fill="white" stroke="black" d="M789.75,-52C789.75,-52 706.25,-52 706.25,-52 700.25,-52 694.25,-46 694.25,-40 694.25,-40 694.25,-28 694.25,-28 694.25,-22 700.25,-16 706.25,-16 706.25,-16 789.75,-16 789.75,-16 795.75,-16 801.75,-22 801.75,-28 801.75,-28 801.75,-40 801.75,-40 801.75,-46 795.75,-52 789.75,-52"/>
<text xml:space="preserve" text-anchor="middle" x="748" y="-31.2" font-family="Times,serif" font-size="14.00">【Terminal】</text>
</g>
<!-- [8]Terminal[14]Terminal Entry[9]Terminate&#45;&gt;[8]Terminal[8]Terminal -->
<g id="edge18" class="edge">
<title>[8]Terminal[14]Terminal Entry[9]Terminate&#45;&gt;[8]Terminal[8]Terminal</title>
<path fill="none" stroke="red" d="M748,-88.05C748,-80.68 748,-71.84 748,-63.51"/>
<polygon fill="red" stroke="red" points="751.5,-63.79 748,-53.79 744.5,-63.79 751.5,-63.79"/>
</g>
<!-- [21]Vending Machine Model[22]Idle (Accepting Coins) -->
<g id="node4" class="node">
<title>[21]Vending Machine Model[22]Idle (Accepting Coins)</title>
<path fill="white" stroke="black" d="M675.62,-641.25C675.62,-641.25 498.38,-641.25 498.38,-641.25 492.38,-641.25 486.38,-635.25 486.38,-629.25 486.38,-629.25 486.38,-617.25 486.38,-617.25 486.38,-611.25 492.38,-605.25 498.38,-605.25 498.38,-605.25 675.62,-605.25 675.62,-605.25 681.62,-605.25 687.62,-611.25 687.62,-617.25 687.62,-617.25 687.62,-629.25 687.62,-629.25 687.62,-635.25 681.62,-641.25 675.62,-641.25"/>
<text xml:space="preserve" text-anchor="middle" x="587" y="-620.45" font-family="Times,serif" font-size="14.00">【Idle (Accepting Coins)】</text>
</g>
<!-- [21]Vending Machine Model[22]Idle (Accepting Coins)[12]Insert Money -->
<g id="node5" class="node">
<title>[21]Vending Machine Model[22]Idle (Accepting Coins)[12]Insert Money</title>
<text xml:space="preserve" text-anchor="middle" x="353" y="-546.58" font-family="Times,serif" font-size="14.00">[Insert Money]</text>
</g>
<!-- [21]Vending Machine Model[22]Idle (Accepting Coins)&#45;&gt;[21]Vending Machine Model[22]Idle (Accepting Coins)[12]Insert Money -->
<g id="edge1" class="edge">
<title>[21]Vending Machine Model[22]Idle (Accepting Coins)&#45;&gt;[21]Vending Machine Model[22]Idle (Accepting Coins)[12]Insert Money</title>
<path fill="none" stroke="blue" d="M528.56,-604.77C492.14,-593.87 445.53,-579.93 409.49,-569.15"/>
</g>
<!-- [21]Vending Machine Model[22]Idle (Accepting Coins)[9]Walk Away -->
<g id="node6" class="node">
<title>[21]Vending Machine Model[22]Idle (Accepting Coins)[9]Walk Away</title>
<text xml:space="preserve" text-anchor="middle" x="668" y="-402.57" font-family="Times,serif" font-size="14.00">[Walk Away]</text>
</g>
<!-- [21]Vending Machine Model[22]Idle (Accepting Coins)&#45;&gt;[21]Vending Machine Model[22]Idle (Accepting Coins)[9]Walk Away -->
<g id="edge3" class="edge">
<title>[21]Vending Machine Model[22]Idle (Accepting Coins)&#45;&gt;[21]Vending Machine Model[22]Idle (Accepting Coins)[9]Walk Away</title>
<path fill="none" stroke="blue" d="M593.49,-605.1C608.7,-564.93 646.47,-465.14 661.59,-425.19"/>
</g>
<!-- [21]Vending Machine Model[14]Selecting Item -->
<g id="node7" class="node">
<title>[21]Vending Machine Model[14]Selecting Item</title>
<path fill="white" stroke="black" d="M271.38,-497.25C271.38,-497.25 146.62,-497.25 146.62,-497.25 140.62,-497.25 134.62,-491.25 134.62,-485.25 134.62,-485.25 134.62,-473.25 134.62,-473.25 134.62,-467.25 140.62,-461.25 146.62,-461.25 146.62,-461.25 271.38,-461.25 271.38,-461.25 277.38,-461.25 283.38,-467.25 283.38,-473.25 283.38,-473.25 283.38,-485.25 283.38,-485.25 283.38,-491.25 277.38,-497.25 271.38,-497.25"/>
<text xml:space="preserve" text-anchor="middle" x="209" y="-476.45" font-family="Times,serif" font-size="14.00">【Selecting Item】</text>
</g>
<!-- [21]Vending Machine Model[22]Idle (Accepting Coins)[12]Insert Money&#45;&gt;[21]Vending Machine Model[14]Selecting Item -->
<g id="edge2" class="edge">
<title>[21]Vending Machine Model[22]Idle (Accepting Coins)[12]Insert Money&#45;&gt;[21]Vending Machine Model[14]Selecting Item</title>
<path fill="none" stroke="blue" d="M318.14,-533.3C299.22,-524.11 275.58,-512.61 255.14,-502.68"/>
<polygon fill="blue" stroke="blue" points="256.67,-499.53 246.15,-498.31 253.61,-505.83 256.67,-499.53"/>
</g>
<!-- [21]Vending Machine Model[22]Idle (Accepting Coins)[9]Walk Away&#45;&gt;[8]Terminal[14]Terminal Entry -->
<g id="edge4" class="edge">
<title>[21]Vending Machine Model[22]Idle (Accepting Coins)[9]Walk Away&#45;&gt;[8]Terminal[14]Terminal Entry</title>
<path fill="none" stroke="blue" d="M678.01,-389.48C691.57,-366.05 715.6,-321.84 729,-281.25 737,-257.03 741.95,-228.4 744.79,-207.61"/>
<polygon fill="blue" stroke="blue" points="748.24,-208.23 746.03,-197.86 741.3,-207.34 748.24,-208.23"/>
</g>
<!-- [21]Vending Machine Model[14]Selecting Item[11]Insert More -->
<g id="node8" class="node">
<title>[21]Vending Machine Model[14]Selecting Item[11]Insert More</title>
<text xml:space="preserve" text-anchor="middle" x="72" y="-402.57" font-family="Times,serif" font-size="14.00">[Insert More]</text>
</g>
<!-- [21]Vending Machine Model[14]Selecting Item&#45;&gt;[21]Vending Machine Model[14]Selecting Item[11]Insert More -->
<g id="edge5" class="edge">
<title>[21]Vending Machine Model[14]Selecting Item&#45;&gt;[21]Vending Machine Model[14]Selecting Item[11]Insert More</title>
<path fill="none" stroke="blue" d="M168.85,-460.77C146.34,-449.83 118.95,-435.83 98.98,-425.03"/>
</g>
<!-- [21]Vending Machine Model[14]Selecting Item[24]Purchase Drink (150 Yen) -->
<g id="node9" class="node">
<title>[21]Vending Machine Model[14]Selecting Item[24]Purchase Drink (150 Yen)</title>
<text xml:space="preserve" text-anchor="middle" x="270" y="-402.57" font-family="Times,serif" font-size="14.00">[Purchase Drink (150 Yen)]</text>
</g>
<!-- [21]Vending Machine Model[14]Selecting Item&#45;&gt;[21]Vending Machine Model[14]Selecting Item[24]Purchase Drink (150 Yen) -->
<g id="edge7" class="edge">
<title>[21]Vending Machine Model[14]Selecting Item&#45;&gt;[21]Vending Machine Model[14]Selecting Item[24]Purchase Drink (150 Yen)</title>
<path fill="none" stroke="blue" d="M224.08,-460.95C233.68,-449.93 246.04,-435.75 255.51,-424.87"/>
</g>
<!-- [21]Vending Machine Model[14]Selecting Item[18]Press Return Lever -->
<g id="node10" class="node">
<title>[21]Vending Machine Model[14]Selecting Item[18]Press Return Lever</title>
<text xml:space="preserve" text-anchor="middle" x="475" y="-402.57" font-family="Times,serif" font-size="14.00">[Press Return Lever]</text>
</g>
<!-- [21]Vending Machine Model[14]Selecting Item&#45;&gt;[21]Vending Machine Model[14]Selecting Item[18]Press Return Lever -->
<g id="edge9" class="edge">
<title>[21]Vending Machine Model[14]Selecting Item&#45;&gt;[21]Vending Machine Model[14]Selecting Item[18]Press Return Lever</title>
<path fill="none" stroke="blue" d="M275.44,-460.77C316.83,-449.87 369.82,-435.93 410.79,-425.15"/>
</g>
<!-- [21]Vending Machine Model[14]Selecting Item[11]Insert More&#45;&gt;[21]Vending Machine Model[14]Selecting Item -->
<g id="edge6" class="edge">
<title>[21]Vending Machine Model[14]Selecting Item[11]Insert More&#45;&gt;[21]Vending Machine Model[14]Selecting Item</title>
<path fill="none" stroke="blue" d="M110.7,-425.03C129.51,-434.14 151.98,-445.53 170.73,-455.44"/>
<polygon fill="blue" stroke="blue" points="168.91,-458.44 179.38,-460.05 172.2,-452.26 168.91,-458.44"/>
</g>
<!-- [21]Vending Machine Model[15]Dispensing Item -->
<g id="node11" class="node">
<title>[21]Vending Machine Model[15]Dispensing Item</title>
<path fill="white" stroke="black" d="M338.75,-353.25C338.75,-353.25 201.25,-353.25 201.25,-353.25 195.25,-353.25 189.25,-347.25 189.25,-341.25 189.25,-341.25 189.25,-329.25 189.25,-329.25 189.25,-323.25 195.25,-317.25 201.25,-317.25 201.25,-317.25 338.75,-317.25 338.75,-317.25 344.75,-317.25 350.75,-323.25 350.75,-329.25 350.75,-329.25 350.75,-341.25 350.75,-341.25 350.75,-347.25 344.75,-353.25 338.75,-353.25"/>
<text xml:space="preserve" text-anchor="middle" x="270" y="-332.45" font-family="Times,serif" font-size="14.00">【Dispensing Item】</text>
</g>
<!-- [21]Vending Machine Model[14]Selecting Item[24]Purchase Drink (150 Yen)&#45;&gt;[21]Vending Machine Model[15]Dispensing Item -->
<g id="edge8" class="edge">
<title>[21]Vending Machine Model[14]Selecting Item[24]Purchase Drink (150 Yen)&#45;&gt;[21]Vending Machine Model[15]Dispensing Item</title>
<path fill="none" stroke="blue" d="M270,-389.3C270,-381.93 270,-373.09 270,-364.76"/>
<polygon fill="blue" stroke="blue" points="273.5,-365.04 270,-355.04 266.5,-365.04 273.5,-365.04"/>
</g>
<!-- [21]Vending Machine Model[16]Returning Change -->
<g id="node14" class="node">
<title>[21]Vending Machine Model[16]Returning Change</title>
<path fill="white" stroke="black" d="M545.5,-353.25C545.5,-353.25 394.5,-353.25 394.5,-353.25 388.5,-353.25 382.5,-347.25 382.5,-341.25 382.5,-341.25 382.5,-329.25 382.5,-329.25 382.5,-323.25 388.5,-317.25 394.5,-317.25 394.5,-317.25 545.5,-317.25 545.5,-317.25 551.5,-317.25 557.5,-323.25 557.5,-329.25 557.5,-329.25 557.5,-341.25 557.5,-341.25 557.5,-347.25 551.5,-353.25 545.5,-353.25"/>
<text xml:space="preserve" text-anchor="middle" x="470" y="-332.45" font-family="Times,serif" font-size="14.00">【Returning Change】</text>
</g>
<!-- [21]Vending Machine Model[14]Selecting Item[18]Press Return Lever&#45;&gt;[21]Vending Machine Model[16]Returning Change -->
<g id="edge10" class="edge">
<title>[21]Vending Machine Model[14]Selecting Item[18]Press Return Lever&#45;&gt;[21]Vending Machine Model[16]Returning Change</title>
<path fill="none" stroke="blue" d="M473.79,-389.3C473.26,-381.93 472.63,-373.09 472.04,-364.76"/>
<polygon fill="blue" stroke="blue" points="475.55,-364.76 471.34,-355.03 468.56,-365.26 475.55,-364.76"/>
</g>
<!-- [21]Vending Machine Model[15]Dispensing Item[34]Dispense Done (Remaining Inserted) -->
<g id="node12" class="node">
<title>[21]Vending Machine Model[15]Dispensing Item[34]Dispense Done (Remaining Inserted)</title>
<text xml:space="preserve" text-anchor="middle" x="161" y="-258.57" font-family="Times,serif" font-size="14.00">[Dispense Done (Remaining Inserted)]</text>
</g>
<!-- [21]Vending Machine Model[15]Dispensing Item&#45;&gt;[21]Vending Machine Model[15]Dispensing Item[34]Dispense Done (Remaining Inserted) -->
<g id="edge11" class="edge">
<title>[21]Vending Machine Model[15]Dispensing Item&#45;&gt;[21]Vending Machine Model[15]Dispensing Item[34]Dispense Done (Remaining Inserted)</title>
<path fill="none" stroke="red" d="M242.78,-316.77C225.75,-305.83 203.94,-291.83 187.13,-281.03"/>
</g>
<!-- [21]Vending Machine Model[15]Dispensing Item[25]Dispense Done (Just Zero) -->
<g id="node13" class="node">
<title>[21]Vending Machine Model[15]Dispensing Item[25]Dispense Done (Just Zero)</title>
<text xml:space="preserve" text-anchor="middle" x="430" y="-258.57" font-family="Times,serif" font-size="14.00">[Dispense Done (Just Zero)]</text>
</g>
<!-- [21]Vending Machine Model[15]Dispensing Item&#45;&gt;[21]Vending Machine Model[15]Dispensing Item[25]Dispense Done (Just Zero) -->
<g id="edge13" class="edge">
<title>[21]Vending Machine Model[15]Dispensing Item&#45;&gt;[21]Vending Machine Model[15]Dispensing Item[25]Dispense Done (Just Zero)</title>
<path fill="none" stroke="red" d="M309.96,-316.77C334.86,-305.87 366.73,-291.93 391.37,-281.15"/>
</g>
<!-- [21]Vending Machine Model[15]Dispensing Item[34]Dispense Done (Remaining Inserted)&#45;&gt;[21]Vending Machine Model[14]Selecting Item -->
<g id="edge12" class="edge">
<title>[21]Vending Machine Model[15]Dispensing Item[34]Dispense Done (Remaining Inserted)&#45;&gt;[21]Vending Machine Model[14]Selecting Item</title>
<path fill="none" stroke="red" d="M156.33,-281.03C148.84,-311.21 136.9,-376.07 157,-425.25 161.27,-435.7 168.7,-445.2 176.64,-453.18"/>
<polygon fill="red" stroke="red" points="174.16,-455.66 183.87,-459.9 178.92,-450.53 174.16,-455.66"/>
</g>
<!-- [21]Vending Machine Model[15]Dispensing Item[25]Dispense Done (Just Zero)&#45;&gt;[21]Vending Machine Model[22]Idle (Accepting Coins) -->
<g id="edge14" class="edge">
<title>[21]Vending Machine Model[15]Dispensing Item[25]Dispense Done (Just Zero)&#45;&gt;[21]Vending Machine Model[22]Idle (Accepting Coins)</title>
<path fill="none" stroke="red" d="M515.43,-281.18C535.13,-289.02 554.08,-300.49 567,-317.25 591.3,-348.77 577,-366.45 577,-406.25 577,-480.25 577,-480.25 577,-480.25 577,-519.61 580.87,-564.95 583.79,-593.6"/>
<polygon fill="red" stroke="red" points="580.29,-593.71 584.82,-603.28 587.25,-592.97 580.29,-593.71"/>
</g>
<!-- [21]Vending Machine Model[16]Returning Change[17]Change Dispatched -->
<g id="node15" class="node">
<title>[21]Vending Machine Model[16]Returning Change[17]Change Dispatched</title>
<text xml:space="preserve" text-anchor="middle" x="637" y="-258.57" font-family="Times,serif" font-size="14.00">[Change Dispatched]</text>
</g>
<!-- [21]Vending Machine Model[16]Returning Change&#45;&gt;[21]Vending Machine Model[16]Returning Change[17]Change Dispatched -->
<g id="edge15" class="edge">
<title>[21]Vending Machine Model[16]Returning Change&#45;&gt;[21]Vending Machine Model[16]Returning Change[17]Change Dispatched</title>
<path fill="none" stroke="red" d="M511.71,-316.77C537.7,-305.87 570.96,-291.93 596.68,-281.15"/>
</g>
<!-- [21]Vending Machine Model[16]Returning Change[17]Change Dispatched&#45;&gt;[21]Vending Machine Model[22]Idle (Accepting Coins) -->
<g id="edge16" class="edge">
<title>[21]Vending Machine Model[16]Returning Change[17]Change Dispatched&#45;&gt;[21]Vending Machine Model[22]Idle (Accepting Coins)</title>
<path fill="none" stroke="red" d="M629.1,-280.87C617.44,-306.96 597,-359.38 597,-406.25 597,-480.25 597,-480.25 597,-480.25 597,-519.61 593.13,-564.95 590.21,-593.6"/>
<polygon fill="red" stroke="red" points="586.75,-592.97 589.18,-603.28 593.71,-593.71 586.75,-592.97"/>
</g>
</g>
</svg>
