<?xml version="1.0" encoding="UTF-8" standalone="no"?>
<!DOCTYPE svg PUBLIC "-//W3C//DTD SVG 1.1//EN"
 "http://www.w3.org/Graphics/SVG/1.1/DTD/svg11.dtd">
<!-- Generated by graphviz version 14.1.1 (20251213.1925)
 -->
<!-- Title: G Pages: 1 -->
<svg width="1354pt" height="899pt"
 viewBox="0.00 0.00 1354.00 899.00" xmlns="http://www.w3.org/2000/svg" xmlns:xlink="http://www.w3.org/1999/xlink">
<g id="graph0" class="graph" transform="scale(1.33333 1.33333) rotate(0) translate(4 670)">
<title>G</title>
<polygon fill="white" stroke="none" points="-4,4 -4,-670 1011.25,-670 1011.25,4 -4,4"/>
<g id="clust1" class="cluster">
<title>cluster_[16]Water Jug Puzzle</title>
<polygon fill="none" stroke="black" points="8,-8 8,-658 999.25,-658 999.25,-8 8,-8"/>
<text xml:space="preserve" text-anchor="middle" x="503.62" y="-640.7" font-family="Times,serif" font-size="14.00">Water Jug Puzzle</text>
</g>
<!-- [16]Water Jug Puzzle[7]Playing -->
<g id="node1" class="node">
<title>[16]Water Jug Puzzle[7]Playing</title>
<path fill="white" stroke="black" d="M184.75,-394C184.75,-394 28,-394 28,-394 22,-394 16,-388 16,-382 16,-382 16,-340 16,-340 16,-334 22,-328 28,-328 28,-328 184.75,-328 184.75,-328 190.75,-328 196.75,-334 196.75,-340 196.75,-340 196.75,-382 196.75,-382 196.75,-388 190.75,-394 184.75,-394"/>
<text xml:space="preserve" text-anchor="start" x="80.5" y="-373.7" font-family="Helvetica,Arial,sans-serif" font-weight="bold" font-size="14.00">Playing</text>
<text xml:space="preserve" text-anchor="start" x="28" y="-343.7" font-family="Helvetica,Arial,sans-serif" font-size="14.00">prompt: prompt&#45;playing</text>
</g>
<!-- [16]Water Jug Puzzle[7]Playing[7]Fill 3G -->
<g id="node2" class="node">
<title>[16]Water Jug Puzzle[7]Playing[7]Fill 3G</title>
<text xml:space="preserve" text-anchor="start" x="314" y="-81.2" font-family="Helvetica,Arial,sans-serif" font-weight="bold" font-size="14.00">Fill 3G</text>
<text xml:space="preserve" text-anchor="start" x="271.25" y="-55.2" font-family="Helvetica,Arial,sans-serif" font-size="14.00">when: (can&#45;fill? cap)</text>
<text xml:space="preserve" text-anchor="start" x="289.25" y="-30.2" font-family="Helvetica,Arial,sans-serif" font-size="14.00">trans: (fill cap)</text>
</g>
<!-- [16]Water Jug Puzzle[7]Playing&#45;&gt;[16]Water Jug Puzzle[7]Playing[7]Fill 3G -->
<g id="edge1" class="edge">
<title>[16]Water Jug Puzzle[7]Playing&#45;&gt;[16]Water Jug Puzzle[7]Playing[7]Fill 3G</title>
<path fill="none" stroke="blue" d="M116.49,-327.53C132.28,-275.01 169.28,-172.69 232.75,-109 241.04,-100.68 250.97,-93.47 261.32,-87.31"/>
</g>
<!-- [16]Water Jug Puzzle[7]Playing[7]Fill 5G -->
<g id="node3" class="node">
<title>[16]Water Jug Puzzle[7]Playing[7]Fill 5G</title>
<text xml:space="preserve" text-anchor="start" x="314" y="-182.2" font-family="Helvetica,Arial,sans-serif" font-weight="bold" font-size="14.00">Fill 5G</text>
<text xml:space="preserve" text-anchor="start" x="271.25" y="-156.2" font-family="Helvetica,Arial,sans-serif" font-size="14.00">when: (can&#45;fill? cap)</text>
<text xml:space="preserve" text-anchor="start" x="289.25" y="-131.2" font-family="Helvetica,Arial,sans-serif" font-size="14.00">trans: (fill cap)</text>
</g>
<!-- [16]Water Jug Puzzle[7]Playing&#45;&gt;[16]Water Jug Puzzle[7]Playing[7]Fill 5G -->
<g id="edge3" class="edge">
<title>[16]Water Jug Puzzle[7]Playing&#45;&gt;[16]Water Jug Puzzle[7]Playing[7]Fill 5G</title>
<path fill="none" stroke="blue" d="M129.04,-327.53C151.76,-294.42 190.07,-243.92 232.75,-210 241.48,-203.06 251.31,-196.7 261.32,-191"/>
</g>
<!-- [16]Water Jug Puzzle[7]Playing[8]Empty 3G -->
<g id="node4" class="node">
<title>[16]Water Jug Puzzle[7]Playing[8]Empty 3G</title>
<text xml:space="preserve" text-anchor="start" x="302.38" y="-283.2" font-family="Helvetica,Arial,sans-serif" font-weight="bold" font-size="14.00">Empty 3G</text>
<text xml:space="preserve" text-anchor="start" x="258.5" y="-257.2" font-family="Helvetica,Arial,sans-serif" font-size="14.00">when: (can&#45;empty? cap)</text>
<text xml:space="preserve" text-anchor="start" x="276.5" y="-232.2" font-family="Helvetica,Arial,sans-serif" font-size="14.00">trans: (empty cap)</text>
</g>
<!-- [16]Water Jug Puzzle[7]Playing&#45;&gt;[16]Water Jug Puzzle[7]Playing[8]Empty 3G -->
<g id="edge5" class="edge">
<title>[16]Water Jug Puzzle[7]Playing&#45;&gt;[16]Water Jug Puzzle[7]Playing[8]Empty 3G</title>
<path fill="none" stroke="blue" d="M182.65,-327.51C203.81,-318.09 226.99,-307.78 248.71,-298.12"/>
</g>
<!-- [16]Water Jug Puzzle[7]Playing[8]Empty 5G -->
<g id="node5" class="node">
<title>[16]Water Jug Puzzle[7]Playing[8]Empty 5G</title>
<text xml:space="preserve" text-anchor="start" x="302.38" y="-384.2" font-family="Helvetica,Arial,sans-serif" font-weight="bold" font-size="14.00">Empty 5G</text>
<text xml:space="preserve" text-anchor="start" x="258.5" y="-358.2" font-family="Helvetica,Arial,sans-serif" font-size="14.00">when: (can&#45;empty? cap)</text>
<text xml:space="preserve" text-anchor="start" x="276.5" y="-333.2" font-family="Helvetica,Arial,sans-serif" font-size="14.00">trans: (empty cap)</text>
</g>
<!-- [16]Water Jug Puzzle[7]Playing&#45;&gt;[16]Water Jug Puzzle[7]Playing[8]Empty 5G -->
<g id="edge7" class="edge">
<title>[16]Water Jug Puzzle[7]Playing&#45;&gt;[16]Water Jug Puzzle[7]Playing[8]Empty 5G</title>
<path fill="none" stroke="blue" d="M197.09,-361C214.07,-361 231.79,-361 248.64,-361"/>
</g>
<!-- [16]Water Jug Puzzle[7]Playing[13]Pour 3G &#45;&gt; 5G -->
<g id="node6" class="node">
<title>[16]Water Jug Puzzle[7]Playing[13]Pour 3G &#45;&gt; 5G</title>
<text xml:space="preserve" text-anchor="start" x="289.62" y="-485.2" font-family="Helvetica,Arial,sans-serif" font-weight="bold" font-size="14.00">Pour 3G &#45;&gt; 5G</text>
<text xml:space="preserve" text-anchor="start" x="242.75" y="-459.2" font-family="Helvetica,Arial,sans-serif" font-size="14.00">when: (can&#45;pour? cap1 cap2)</text>
<text xml:space="preserve" text-anchor="start" x="260.75" y="-434.2" font-family="Helvetica,Arial,sans-serif" font-size="14.00">trans: (pour cap1 cap2)</text>
</g>
<!-- [16]Water Jug Puzzle[7]Playing&#45;&gt;[16]Water Jug Puzzle[7]Playing[13]Pour 3G &#45;&gt; 5G -->
<g id="edge9" class="edge">
<title>[16]Water Jug Puzzle[7]Playing&#45;&gt;[16]Water Jug Puzzle[7]Playing[13]Pour 3G &#45;&gt; 5G</title>
<path fill="none" stroke="blue" d="M182.65,-394.49C201.36,-402.82 221.64,-411.84 241.11,-420.5"/>
</g>
<!-- [16]Water Jug Puzzle[7]Playing[13]Pour 5G &#45;&gt; 3G -->
<g id="node7" class="node">
<title>[16]Water Jug Puzzle[7]Playing[13]Pour 5G &#45;&gt; 3G</title>
<text xml:space="preserve" text-anchor="start" x="289.62" y="-586.2" font-family="Helvetica,Arial,sans-serif" font-weight="bold" font-size="14.00">Pour 5G &#45;&gt; 3G</text>
<text xml:space="preserve" text-anchor="start" x="242.75" y="-560.2" font-family="Helvetica,Arial,sans-serif" font-size="14.00">when: (can&#45;pour? cap1 cap2)</text>
<text xml:space="preserve" text-anchor="start" x="260.75" y="-535.2" font-family="Helvetica,Arial,sans-serif" font-size="14.00">trans: (pour cap1 cap2)</text>
</g>
<!-- [16]Water Jug Puzzle[7]Playing&#45;&gt;[16]Water Jug Puzzle[7]Playing[13]Pour 5G &#45;&gt; 3G -->
<g id="edge11" class="edge">
<title>[16]Water Jug Puzzle[7]Playing&#45;&gt;[16]Water Jug Puzzle[7]Playing[13]Pour 5G &#45;&gt; 3G</title>
<path fill="none" stroke="blue" d="M128.72,-394.46C151.34,-427.84 189.69,-478.94 232.75,-513 236.53,-515.99 240.51,-518.86 244.63,-521.62"/>
</g>
<!-- [16]Water Jug Puzzle[11]Check Clear -->
<g id="node8" class="node">
<title>[16]Water Jug Puzzle[11]Check Clear</title>
<path fill="white" stroke="black" d="M567,-379.5C567,-379.5 486,-379.5 486,-379.5 480,-379.5 474,-373.5 474,-367.5 474,-367.5 474,-354.5 474,-354.5 474,-348.5 480,-342.5 486,-342.5 486,-342.5 567,-342.5 567,-342.5 573,-342.5 579,-348.5 579,-354.5 579,-354.5 579,-367.5 579,-367.5 579,-373.5 573,-379.5 567,-379.5"/>
<text xml:space="preserve" text-anchor="start" x="486" y="-359.2" font-family="Helvetica,Arial,sans-serif" font-weight="bold" font-size="14.00">Check Clear</text>
</g>
<!-- [16]Water Jug Puzzle[7]Playing[7]Fill 3G&#45;&gt;[16]Water Jug Puzzle[11]Check Clear -->
<g id="edge2" class="edge">
<title>[16]Water Jug Puzzle[7]Playing[7]Fill 3G&#45;&gt;[16]Water Jug Puzzle[11]Check Clear</title>
<path fill="none" stroke="blue" d="M409.36,-85.78C419.97,-92.19 430,-99.87 438,-109 495.39,-174.44 515.67,-279.61 522.4,-330.91"/>
<polygon fill="blue" stroke="blue" points="518.91,-331.15 523.59,-340.66 525.86,-330.31 518.91,-331.15"/>
</g>
<!-- [16]Water Jug Puzzle[7]Playing[7]Fill 5G&#45;&gt;[16]Water Jug Puzzle[11]Check Clear -->
<g id="edge4" class="edge">
<title>[16]Water Jug Puzzle[7]Playing[7]Fill 5G&#45;&gt;[16]Water Jug Puzzle[11]Check Clear</title>
<path fill="none" stroke="blue" d="M409.49,-189.09C419.72,-195.12 429.59,-202.08 438,-210 475.06,-244.9 501.16,-299.03 514.73,-332.11"/>
<polygon fill="blue" stroke="blue" points="511.34,-333.06 518.29,-341.06 517.84,-330.48 511.34,-333.06"/>
</g>
<!-- [16]Water Jug Puzzle[7]Playing[8]Empty 3G&#45;&gt;[16]Water Jug Puzzle[11]Check Clear -->
<g id="edge6" class="edge">
<title>[16]Water Jug Puzzle[7]Playing[8]Empty 3G&#45;&gt;[16]Water Jug Puzzle[11]Check Clear</title>
<path fill="none" stroke="blue" d="M419.75,-301.39C425.95,-304.6 432.08,-307.83 438,-311 453.03,-319.06 469.31,-328.23 483.7,-336.5"/>
<polygon fill="blue" stroke="blue" points="481.6,-339.33 492.01,-341.3 485.1,-333.27 481.6,-339.33"/>
</g>
<!-- [16]Water Jug Puzzle[7]Playing[8]Empty 5G&#45;&gt;[16]Water Jug Puzzle[11]Check Clear -->
<g id="edge8" class="edge">
<title>[16]Water Jug Puzzle[7]Playing[8]Empty 5G&#45;&gt;[16]Water Jug Puzzle[11]Check Clear</title>
<path fill="none" stroke="blue" d="M422.08,-361C435.69,-361 449.54,-361 462.5,-361"/>
<polygon fill="blue" stroke="blue" points="462.12,-364.5 472.12,-361 462.12,-357.5 462.12,-364.5"/>
</g>
<!-- [16]Water Jug Puzzle[7]Playing[13]Pour 3G &#45;&gt; 5G&#45;&gt;[16]Water Jug Puzzle[11]Check Clear -->
<g id="edge10" class="edge">
<title>[16]Water Jug Puzzle[7]Playing[13]Pour 3G &#45;&gt; 5G&#45;&gt;[16]Water Jug Puzzle[11]Check Clear</title>
<path fill="none" stroke="blue" d="M421.72,-420.56C427.25,-417.71 432.72,-414.84 438,-412 453.36,-403.76 469.94,-394.25 484.5,-385.7"/>
<polygon fill="blue" stroke="blue" points="486.08,-388.83 492.91,-380.73 482.52,-382.8 486.08,-388.83"/>
</g>
<!-- [16]Water Jug Puzzle[7]Playing[13]Pour 5G &#45;&gt; 3G&#45;&gt;[16]Water Jug Puzzle[11]Check Clear -->
<g id="edge12" class="edge">
<title>[16]Water Jug Puzzle[7]Playing[13]Pour 5G &#45;&gt; 3G&#45;&gt;[16]Water Jug Puzzle[11]Check Clear</title>
<path fill="none" stroke="blue" d="M427.48,-521.82C431.17,-519.03 434.7,-516.09 438,-513 475.23,-478.12 501.21,-423.78 514.72,-390.4"/>
<polygon fill="blue" stroke="blue" points="517.87,-391.94 518.26,-381.35 511.36,-389.38 517.87,-391.94"/>
</g>
<!-- [16]Water Jug Puzzle[11]Check Clear[7]Not yet -->
<g id="node9" class="node">
<title>[16]Water Jug Puzzle[11]Check Clear[7]Not yet</title>
<text xml:space="preserve" text-anchor="start" x="683.88" y="-527.7" font-family="Helvetica,Arial,sans-serif" font-weight="bold" font-size="14.00">Not yet</text>
<text xml:space="preserve" text-anchor="start" x="625" y="-501.7" font-family="Helvetica,Arial,sans-serif" font-size="14.00">when: (negate is&#45;cleared?)</text>
</g>
<!-- [16]Water Jug Puzzle[11]Check Clear&#45;&gt;[16]Water Jug Puzzle[11]Check Clear[7]Not yet -->
<g id="edge13" class="edge">
<title>[16]Water Jug Puzzle[11]Check Clear&#45;&gt;[16]Water Jug Puzzle[11]Check Clear[7]Not yet</title>
<path fill="none" stroke="red" d="M549.27,-379.82C580.4,-406.72 637.9,-456.42 674.48,-488.03"/>
</g>
<!-- [16]Water Jug Puzzle[11]Check Clear[6]Clear! -->
<g id="node10" class="node">
<title>[16]Water Jug Puzzle[11]Check Clear[6]Clear!</title>
<text xml:space="preserve" text-anchor="start" x="688.38" y="-371.7" font-family="Helvetica,Arial,sans-serif" font-weight="bold" font-size="14.00">Clear!</text>
<text xml:space="preserve" text-anchor="start" x="652.75" y="-345.7" font-family="Helvetica,Arial,sans-serif" font-size="14.00">when: is&#45;cleared?</text>
</g>
<!-- [16]Water Jug Puzzle[11]Check Clear&#45;&gt;[16]Water Jug Puzzle[11]Check Clear[6]Clear! -->
<g id="edge15" class="edge">
<title>[16]Water Jug Puzzle[11]Check Clear&#45;&gt;[16]Water Jug Puzzle[11]Check Clear[6]Clear!</title>
<path fill="none" stroke="red" d="M579.22,-361C599.12,-361 622.09,-361 643.08,-361"/>
</g>
<!-- [16]Water Jug Puzzle[11]Check Clear[7]Not yet&#45;&gt;[16]Water Jug Puzzle[7]Playing -->
<g id="edge14" class="edge">
<title>[16]Water Jug Puzzle[11]Check Clear[7]Not yet&#45;&gt;[16]Water Jug Puzzle[7]Playing</title>
<path fill="none" stroke="red" d="M663.33,-545.85C574.47,-599.24 372.1,-700.47 232.75,-614 158.99,-568.23 127.28,-464.72 114.74,-405.25"/>
<polygon fill="red" stroke="red" points="118.25,-404.93 112.85,-395.81 111.39,-406.31 118.25,-404.93"/>
</g>
<!-- [16]Water Jug Puzzle[8]Cleared! -->
<g id="node11" class="node">
<title>[16]Water Jug Puzzle[8]Cleared!</title>
<path fill="white" stroke="black" d="M979.25,-394C979.25,-394 851,-394 851,-394 845,-394 839,-388 839,-382 839,-382 839,-340 839,-340 839,-334 845,-328 851,-328 851,-328 979.25,-328 979.25,-328 985.25,-328 991.25,-334 991.25,-340 991.25,-340 991.25,-382 991.25,-382 991.25,-388 985.25,-394 979.25,-394"/>
<text xml:space="preserve" text-anchor="start" x="885.88" y="-373.7" font-family="Helvetica,Arial,sans-serif" font-weight="bold" font-size="14.00">Cleared!</text>
<text xml:space="preserve" text-anchor="start" x="851" y="-343.7" font-family="Helvetica,Arial,sans-serif" font-size="14.00">trans: show&#45;cleared</text>
</g>
<!-- [16]Water Jug Puzzle[11]Check Clear[6]Clear!&#45;&gt;[16]Water Jug Puzzle[8]Cleared! -->
<g id="edge16" class="edge">
<title>[16]Water Jug Puzzle[11]Check Clear[6]Clear!&#45;&gt;[16]Water Jug Puzzle[8]Cleared!</title>
<path fill="none" stroke="red" d="M775.15,-361C791.71,-361 809.76,-361 827.21,-361"/>
<polygon fill="red" stroke="red" points="827.06,-364.5 837.06,-361 827.06,-357.5 827.06,-364.5"/>
</g>
</g>
</svg>
