<?xml version="1.0" encoding="UTF-8" standalone="no"?>
<!DOCTYPE svg PUBLIC "-//W3C//DTD SVG 1.1//EN"
 "http://www.w3.org/Graphics/SVG/1.1/DTD/svg11.dtd">
<!-- Generated by graphviz version 14.1.1 (20251213.1925)
 -->
<!-- Title: G Pages: 1 -->
<svg width="1354pt" height="1707pt"
 viewBox="0.00 0.00 1354.00 1707.00" xmlns="http://www.w3.org/2000/svg" xmlns:xlink="http://www.w3.org/1999/xlink">
<g id="graph0" class="graph" transform="scale(1.33333 1.33333) rotate(0) translate(4 1276)">
<title>G</title>
<polygon fill="white" stroke="none" points="-4,4 -4,-1276 1011.25,-1276 1011.25,4 -4,4"/>
<g id="clust1" class="cluster">
<title>cluster_[16]Water Jug Puzzle</title>
<polygon fill="none" stroke="black" points="8,-8 8,-1264 999.25,-1264 999.25,-8 8,-8"/>
<text xml:space="preserve" text-anchor="middle" x="503.62" y="-1246.7" font-family="Times,serif" font-size="14.00">Water Jug Puzzle</text>
</g>
<!-- [16]Water Jug Puzzle[7]Playing -->
<g id="node1" class="node">
<title>[16]Water Jug Puzzle[7]Playing</title>
<path fill="white" stroke="black" d="M184.75,-697C184.75,-697 28,-697 28,-697 22,-697 16,-691 16,-685 16,-685 16,-643 16,-643 16,-637 22,-631 28,-631 28,-631 184.75,-631 184.75,-631 190.75,-631 196.75,-637 196.75,-643 196.75,-643 196.75,-685 196.75,-685 196.75,-691 190.75,-697 184.75,-697"/>
<text xml:space="preserve" text-anchor="start" x="80.5" y="-676.7" font-family="Helvetica,Arial,sans-serif" font-weight="bold" font-size="14.00">Playing</text>
<text xml:space="preserve" text-anchor="start" x="28" y="-646.7" font-family="Helvetica,Arial,sans-serif" font-size="14.00">prompt: prompt&#45;playing</text>
</g>
<!-- [16]Water Jug Puzzle[7]Playing[7]Fill 3G -->
<g id="node2" class="node">
<title>[16]Water Jug Puzzle[7]Playing[7]Fill 3G</title>
<text xml:space="preserve" text-anchor="start" x="314" y="-81.2" font-family="Helvetica,Arial,sans-serif" font-weight="bold" font-size="14.00">Fill 3G</text>
<text xml:space="preserve" text-anchor="start" x="271.25" y="-55.2" font-family="Helvetica,Arial,sans-serif" font-size="14.00">when: (can&#45;fill? cap)</text>
<text xml:space="preserve" text-anchor="start" x="289.25" y="-30.2" font-family="Helvetica,Arial,sans-serif" font-size="14.00">trans: (fill cap)</text>
</g>
<!-- [16]Water Jug Puzzle[7]Playing&#45;&gt;[16]Water Jug Puzzle[7]Playing[7]Fill 3G -->
<g id="edge1" class="edge">
<title>[16]Water Jug Puzzle[7]Playing&#45;&gt;[16]Water Jug Puzzle[7]Playing[7]Fill 3G</title>
<path fill="none" stroke="blue" d="M111.13,-630.81C123.77,-524.14 167.62,-192.24 232.75,-109 240.41,-99.21 250.46,-91.14 261.25,-84.55"/>
</g>
<!-- [16]Water Jug Puzzle[7]Playing[7]Fill 5G -->
<g id="node3" class="node">
<title>[16]Water Jug Puzzle[7]Playing[7]Fill 5G</title>
<text xml:space="preserve" text-anchor="start" x="314" y="-182.2" font-family="Helvetica,Arial,sans-serif" font-weight="bold" font-size="14.00">Fill 5G</text>
<text xml:space="preserve" text-anchor="start" x="271.25" y="-156.2" font-family="Helvetica,Arial,sans-serif" font-size="14.00">when: (can&#45;fill? cap)</text>
<text xml:space="preserve" text-anchor="start" x="289.25" y="-131.2" font-family="Helvetica,Arial,sans-serif" font-size="14.00">trans: (fill cap)</text>
</g>
<!-- [16]Water Jug Puzzle[7]Playing&#45;&gt;[16]Water Jug Puzzle[7]Playing[7]Fill 5G -->
<g id="edge3" class="edge">
<title>[16]Water Jug Puzzle[7]Playing&#45;&gt;[16]Water Jug Puzzle[7]Playing[7]Fill 5G</title>
<path fill="none" stroke="blue" d="M107.71,-630.77C110.21,-549.63 127.14,-338.59 232.75,-210 240.58,-200.47 250.64,-192.55 261.38,-186.02"/>
</g>
<!-- [16]Water Jug Puzzle[7]Playing[7]Fill 7G -->
<g id="node4" class="node">
<title>[16]Water Jug Puzzle[7]Playing[7]Fill 7G</title>
<text xml:space="preserve" text-anchor="start" x="314" y="-283.2" font-family="Helvetica,Arial,sans-serif" font-weight="bold" font-size="14.00">Fill 7G</text>
<text xml:space="preserve" text-anchor="start" x="271.25" y="-257.2" font-family="Helvetica,Arial,sans-serif" font-size="14.00">when: (can&#45;fill? cap)</text>
<text xml:space="preserve" text-anchor="start" x="289.25" y="-232.2" font-family="Helvetica,Arial,sans-serif" font-size="14.00">trans: (fill cap)</text>
</g>
<!-- [16]Water Jug Puzzle[7]Playing&#45;&gt;[16]Water Jug Puzzle[7]Playing[7]Fill 7G -->
<g id="edge5" class="edge">
<title>[16]Water Jug Puzzle[7]Playing&#45;&gt;[16]Water Jug Puzzle[7]Playing[7]Fill 7G</title>
<path fill="none" stroke="blue" d="M110.9,-630.66C119.7,-562.71 148.37,-406.54 232.75,-311 240.79,-301.9 250.83,-294.23 261.44,-287.83"/>
</g>
<!-- [16]Water Jug Puzzle[7]Playing[8]Empty 3G -->
<g id="node5" class="node">
<title>[16]Water Jug Puzzle[7]Playing[8]Empty 3G</title>
<text xml:space="preserve" text-anchor="start" x="302.38" y="-384.2" font-family="Helvetica,Arial,sans-serif" font-weight="bold" font-size="14.00">Empty 3G</text>
<text xml:space="preserve" text-anchor="start" x="258.5" y="-358.2" font-family="Helvetica,Arial,sans-serif" font-size="14.00">when: (can&#45;empty? cap)</text>
<text xml:space="preserve" text-anchor="start" x="276.5" y="-333.2" font-family="Helvetica,Arial,sans-serif" font-size="14.00">trans: (empty cap)</text>
</g>
<!-- [16]Water Jug Puzzle[7]Playing&#45;&gt;[16]Water Jug Puzzle[7]Playing[8]Empty 3G -->
<g id="edge7" class="edge">
<title>[16]Water Jug Puzzle[7]Playing&#45;&gt;[16]Water Jug Puzzle[7]Playing[8]Empty 3G</title>
<path fill="none" stroke="blue" d="M116.49,-630.53C132.28,-578.01 169.28,-475.69 232.75,-412 237.63,-407.11 243.07,-402.6 248.83,-398.46"/>
</g>
<!-- [16]Water Jug Puzzle[7]Playing[8]Empty 5G -->
<g id="node6" class="node">
<title>[16]Water Jug Puzzle[7]Playing[8]Empty 5G</title>
<text xml:space="preserve" text-anchor="start" x="302.38" y="-485.2" font-family="Helvetica,Arial,sans-serif" font-weight="bold" font-size="14.00">Empty 5G</text>
<text xml:space="preserve" text-anchor="start" x="258.5" y="-459.2" font-family="Helvetica,Arial,sans-serif" font-size="14.00">when: (can&#45;empty? cap)</text>
<text xml:space="preserve" text-anchor="start" x="276.5" y="-434.2" font-family="Helvetica,Arial,sans-serif" font-size="14.00">trans: (empty cap)</text>
</g>
<!-- [16]Water Jug Puzzle[7]Playing&#45;&gt;[16]Water Jug Puzzle[7]Playing[8]Empty 5G -->
<g id="edge9" class="edge">
<title>[16]Water Jug Puzzle[7]Playing&#45;&gt;[16]Water Jug Puzzle[7]Playing[8]Empty 5G</title>
<path fill="none" stroke="blue" d="M129.04,-630.53C151.76,-597.42 190.07,-546.92 232.75,-513 237.77,-509.01 243.16,-505.21 248.73,-501.62"/>
</g>
<!-- [16]Water Jug Puzzle[7]Playing[8]Empty 7G -->
<g id="node7" class="node">
<title>[16]Water Jug Puzzle[7]Playing[8]Empty 7G</title>
<text xml:space="preserve" text-anchor="start" x="302.38" y="-586.2" font-family="Helvetica,Arial,sans-serif" font-weight="bold" font-size="14.00">Empty 7G</text>
<text xml:space="preserve" text-anchor="start" x="258.5" y="-560.2" font-family="Helvetica,Arial,sans-serif" font-size="14.00">when: (can&#45;empty? cap)</text>
<text xml:space="preserve" text-anchor="start" x="276.5" y="-535.2" font-family="Helvetica,Arial,sans-serif" font-size="14.00">trans: (empty cap)</text>
</g>
<!-- [16]Water Jug Puzzle[7]Playing&#45;&gt;[16]Water Jug Puzzle[7]Playing[8]Empty 7G -->
<g id="edge11" class="edge">
<title>[16]Water Jug Puzzle[7]Playing&#45;&gt;[16]Water Jug Puzzle[7]Playing[8]Empty 7G</title>
<path fill="none" stroke="blue" d="M182.65,-630.51C203.81,-621.09 226.99,-610.78 248.71,-601.12"/>
</g>
<!-- [16]Water Jug Puzzle[7]Playing[13]Pour 3G &#45;&gt; 5G -->
<g id="node8" class="node">
<title>[16]Water Jug Puzzle[7]Playing[13]Pour 3G &#45;&gt; 5G</title>
<text xml:space="preserve" text-anchor="start" x="289.62" y="-687.2" font-family="Helvetica,Arial,sans-serif" font-weight="bold" font-size="14.00">Pour 3G &#45;&gt; 5G</text>
<text xml:space="preserve" text-anchor="start" x="242.75" y="-661.2" font-family="Helvetica,Arial,sans-serif" font-size="14.00">when: (can&#45;pour? cap1 cap2)</text>
<text xml:space="preserve" text-anchor="start" x="260.75" y="-636.2" font-family="Helvetica,Arial,sans-serif" font-size="14.00">trans: (pour cap1 cap2)</text>
</g>
<!-- [16]Water Jug Puzzle[7]Playing&#45;&gt;[16]Water Jug Puzzle[7]Playing[13]Pour 3G &#45;&gt; 5G -->
<g id="edge13" class="edge">
<title>[16]Water Jug Puzzle[7]Playing&#45;&gt;[16]Water Jug Puzzle[7]Playing[13]Pour 3G &#45;&gt; 5G</title>
<path fill="none" stroke="blue" d="M197.09,-664C208.86,-664 220.99,-664 232.94,-664"/>
</g>
<!-- [16]Water Jug Puzzle[7]Playing[13]Pour 3G &#45;&gt; 7G -->
<g id="node9" class="node">
<title>[16]Water Jug Puzzle[7]Playing[13]Pour 3G &#45;&gt; 7G</title>
<text xml:space="preserve" text-anchor="start" x="289.62" y="-788.2" font-family="Helvetica,Arial,sans-serif" font-weight="bold" font-size="14.00">Pour 3G &#45;&gt; 7G</text>
<text xml:space="preserve" text-anchor="start" x="242.75" y="-762.2" font-family="Helvetica,Arial,sans-serif" font-size="14.00">when: (can&#45;pour? cap1 cap2)</text>
<text xml:space="preserve" text-anchor="start" x="260.75" y="-737.2" font-family="Helvetica,Arial,sans-serif" font-size="14.00">trans: (pour cap1 cap2)</text>
</g>
<!-- [16]Water Jug Puzzle[7]Playing&#45;&gt;[16]Water Jug Puzzle[7]Playing[13]Pour 3G &#45;&gt; 7G -->
<g id="edge15" class="edge">
<title>[16]Water Jug Puzzle[7]Playing&#45;&gt;[16]Water Jug Puzzle[7]Playing[13]Pour 3G &#45;&gt; 7G</title>
<path fill="none" stroke="blue" d="M182.65,-697.49C201.36,-705.82 221.64,-714.84 241.11,-723.5"/>
</g>
<!-- [16]Water Jug Puzzle[7]Playing[13]Pour 5G &#45;&gt; 3G -->
<g id="node10" class="node">
<title>[16]Water Jug Puzzle[7]Playing[13]Pour 5G &#45;&gt; 3G</title>
<text xml:space="preserve" text-anchor="start" x="289.62" y="-889.2" font-family="Helvetica,Arial,sans-serif" font-weight="bold" font-size="14.00">Pour 5G &#45;&gt; 3G</text>
<text xml:space="preserve" text-anchor="start" x="242.75" y="-863.2" font-family="Helvetica,Arial,sans-serif" font-size="14.00">when: (can&#45;pour? cap1 cap2)</text>
<text xml:space="preserve" text-anchor="start" x="260.75" y="-838.2" font-family="Helvetica,Arial,sans-serif" font-size="14.00">trans: (pour cap1 cap2)</text>
</g>
<!-- [16]Water Jug Puzzle[7]Playing&#45;&gt;[16]Water Jug Puzzle[7]Playing[13]Pour 5G &#45;&gt; 3G -->
<g id="edge17" class="edge">
<title>[16]Water Jug Puzzle[7]Playing&#45;&gt;[16]Water Jug Puzzle[7]Playing[13]Pour 5G &#45;&gt; 3G</title>
<path fill="none" stroke="blue" d="M128.72,-697.46C151.34,-730.84 189.69,-781.94 232.75,-816 236.53,-818.99 240.51,-821.86 244.63,-824.62"/>
</g>
<!-- [16]Water Jug Puzzle[7]Playing[13]Pour 5G &#45;&gt; 7G -->
<g id="node11" class="node">
<title>[16]Water Jug Puzzle[7]Playing[13]Pour 5G &#45;&gt; 7G</title>
<text xml:space="preserve" text-anchor="start" x="289.62" y="-990.2" font-family="Helvetica,Arial,sans-serif" font-weight="bold" font-size="14.00">Pour 5G &#45;&gt; 7G</text>
<text xml:space="preserve" text-anchor="start" x="242.75" y="-964.2" font-family="Helvetica,Arial,sans-serif" font-size="14.00">when: (can&#45;pour? cap1 cap2)</text>
<text xml:space="preserve" text-anchor="start" x="260.75" y="-939.2" font-family="Helvetica,Arial,sans-serif" font-size="14.00">trans: (pour cap1 cap2)</text>
</g>
<!-- [16]Water Jug Puzzle[7]Playing&#45;&gt;[16]Water Jug Puzzle[7]Playing[13]Pour 5G &#45;&gt; 7G -->
<g id="edge19" class="edge">
<title>[16]Water Jug Puzzle[7]Playing&#45;&gt;[16]Water Jug Puzzle[7]Playing[13]Pour 5G &#45;&gt; 7G</title>
<path fill="none" stroke="blue" d="M116.26,-697.24C131.85,-749.92 168.71,-853.14 232.75,-917 235.81,-920.05 239.1,-922.95 242.55,-925.7"/>
</g>
<!-- [16]Water Jug Puzzle[7]Playing[13]Pour 7G &#45;&gt; 3G -->
<g id="node12" class="node">
<title>[16]Water Jug Puzzle[7]Playing[13]Pour 7G &#45;&gt; 3G</title>
<text xml:space="preserve" text-anchor="start" x="289.62" y="-1091.2" font-family="Helvetica,Arial,sans-serif" font-weight="bold" font-size="14.00">Pour 7G &#45;&gt; 3G</text>
<text xml:space="preserve" text-anchor="start" x="242.75" y="-1065.2" font-family="Helvetica,Arial,sans-serif" font-size="14.00">when: (can&#45;pour? cap1 cap2)</text>
<text xml:space="preserve" text-anchor="start" x="260.75" y="-1040.2" font-family="Helvetica,Arial,sans-serif" font-size="14.00">trans: (pour cap1 cap2)</text>
</g>
<!-- [16]Water Jug Puzzle[7]Playing&#45;&gt;[16]Water Jug Puzzle[7]Playing[13]Pour 7G &#45;&gt; 3G -->
<g id="edge21" class="edge">
<title>[16]Water Jug Puzzle[7]Playing&#45;&gt;[16]Water Jug Puzzle[7]Playing[13]Pour 7G &#45;&gt; 3G</title>
<path fill="none" stroke="blue" d="M110.81,-697.49C119.45,-765.73 147.82,-922.52 232.75,-1018 235.49,-1021.09 238.47,-1024 241.63,-1026.75"/>
</g>
<!-- [16]Water Jug Puzzle[7]Playing[13]Pour 7G &#45;&gt; 5G -->
<g id="node13" class="node">
<title>[16]Water Jug Puzzle[7]Playing[13]Pour 7G &#45;&gt; 5G</title>
<text xml:space="preserve" text-anchor="start" x="289.62" y="-1192.2" font-family="Helvetica,Arial,sans-serif" font-weight="bold" font-size="14.00">Pour 7G &#45;&gt; 5G</text>
<text xml:space="preserve" text-anchor="start" x="242.75" y="-1166.2" font-family="Helvetica,Arial,sans-serif" font-size="14.00">when: (can&#45;pour? cap1 cap2)</text>
<text xml:space="preserve" text-anchor="start" x="260.75" y="-1141.2" font-family="Helvetica,Arial,sans-serif" font-size="14.00">trans: (pour cap1 cap2)</text>
</g>
<!-- [16]Water Jug Puzzle[7]Playing&#45;&gt;[16]Water Jug Puzzle[7]Playing[13]Pour 7G &#45;&gt; 5G -->
<g id="edge23" class="edge">
<title>[16]Water Jug Puzzle[7]Playing&#45;&gt;[16]Water Jug Puzzle[7]Playing[13]Pour 7G &#45;&gt; 5G</title>
<path fill="none" stroke="blue" d="M107.62,-697.35C109.93,-778.79 126.46,-990.53 232.75,-1119 235.26,-1122.03 237.99,-1124.89 240.91,-1127.59"/>
</g>
<!-- [16]Water Jug Puzzle[11]Check Clear -->
<g id="node14" class="node">
<title>[16]Water Jug Puzzle[11]Check Clear</title>
<path fill="white" stroke="black" d="M567,-682.5C567,-682.5 486,-682.5 486,-682.5 480,-682.5 474,-676.5 474,-670.5 474,-670.5 474,-657.5 474,-657.5 474,-651.5 480,-645.5 486,-645.5 486,-645.5 567,-645.5 567,-645.5 573,-645.5 579,-651.5 579,-657.5 579,-657.5 579,-670.5 579,-670.5 579,-676.5 573,-682.5 567,-682.5"/>
<text xml:space="preserve" text-anchor="start" x="486" y="-662.2" font-family="Helvetica,Arial,sans-serif" font-weight="bold" font-size="14.00">Check Clear</text>
</g>
<!-- [16]Water Jug Puzzle[7]Playing[7]Fill 3G&#45;&gt;[16]Water Jug Puzzle[11]Check Clear -->
<g id="edge2" class="edge">
<title>[16]Water Jug Puzzle[7]Playing[7]Fill 3G&#45;&gt;[16]Water Jug Puzzle[11]Check Clear</title>
<path fill="none" stroke="blue" d="M409.29,-83.66C420.31,-90.38 430.49,-98.72 438,-109 500.14,-194.05 519.71,-530.6 524.31,-633.77"/>
<polygon fill="blue" stroke="blue" points="520.81,-633.81 524.73,-643.65 527.8,-633.51 520.81,-633.81"/>
</g>
<!-- [16]Water Jug Puzzle[7]Playing[7]Fill 5G&#45;&gt;[16]Water Jug Puzzle[11]Check Clear -->
<g id="edge4" class="edge">
<title>[16]Water Jug Puzzle[7]Playing[7]Fill 5G&#45;&gt;[16]Water Jug Puzzle[11]Check Clear</title>
<path fill="none" stroke="blue" d="M409.25,-185.03C420.21,-191.7 430.37,-199.93 438,-210 489.25,-277.69 515.54,-543.48 523.14,-633.78"/>
<polygon fill="blue" stroke="blue" points="519.63,-633.9 523.94,-643.58 526.61,-633.33 519.63,-633.9"/>
</g>
<!-- [16]Water Jug Puzzle[7]Playing[7]Fill 7G&#45;&gt;[16]Water Jug Puzzle[11]Check Clear -->
<g id="edge6" class="edge">
<title>[16]Water Jug Puzzle[7]Playing[7]Fill 7G&#45;&gt;[16]Water Jug Puzzle[11]Check Clear</title>
<path fill="none" stroke="blue" d="M409.33,-286.69C420.14,-293.26 430.24,-301.29 438,-311 516.49,-409.2 525.82,-568.18 526.09,-634"/>
<polygon fill="blue" stroke="blue" points="522.59,-633.64 526.05,-643.65 529.59,-633.66 522.59,-633.64"/>
</g>
<!-- [16]Water Jug Puzzle[7]Playing[8]Empty 3G&#45;&gt;[16]Water Jug Puzzle[11]Check Clear -->
<g id="edge8" class="edge">
<title>[16]Water Jug Puzzle[7]Playing[8]Empty 3G&#45;&gt;[16]Water Jug Puzzle[11]Check Clear</title>
<path fill="none" stroke="blue" d="M422.15,-397.42C427.94,-401.81 433.31,-406.66 438,-412 495.39,-477.44 515.67,-582.61 522.4,-633.91"/>
<polygon fill="blue" stroke="blue" points="518.91,-634.15 523.59,-643.66 525.86,-633.31 518.91,-634.15"/>
</g>
<!-- [16]Water Jug Puzzle[7]Playing[8]Empty 5G&#45;&gt;[16]Water Jug Puzzle[11]Check Clear -->
<g id="edge10" class="edge">
<title>[16]Water Jug Puzzle[7]Playing[8]Empty 5G&#45;&gt;[16]Water Jug Puzzle[11]Check Clear</title>
<path fill="none" stroke="blue" d="M422.07,-500.16C427.73,-504.12 433.11,-508.4 438,-513 475.06,-547.9 501.16,-602.03 514.73,-635.11"/>
<polygon fill="blue" stroke="blue" points="511.34,-636.06 518.29,-644.06 517.84,-633.48 511.34,-636.06"/>
</g>
<!-- [16]Water Jug Puzzle[7]Playing[8]Empty 7G&#45;&gt;[16]Water Jug Puzzle[11]Check Clear -->
<g id="edge12" class="edge">
<title>[16]Water Jug Puzzle[7]Playing[8]Empty 7G&#45;&gt;[16]Water Jug Puzzle[11]Check Clear</title>
<path fill="none" stroke="blue" d="M419.75,-604.39C425.95,-607.6 432.08,-610.83 438,-614 453.03,-622.06 469.31,-631.23 483.7,-639.5"/>
<polygon fill="blue" stroke="blue" points="481.6,-642.33 492.01,-644.3 485.1,-636.27 481.6,-642.33"/>
</g>
<!-- [16]Water Jug Puzzle[7]Playing[13]Pour 3G &#45;&gt; 5G&#45;&gt;[16]Water Jug Puzzle[11]Check Clear -->
<g id="edge14" class="edge">
<title>[16]Water Jug Puzzle[7]Playing[13]Pour 3G &#45;&gt; 5G&#45;&gt;[16]Water Jug Puzzle[11]Check Clear</title>
<path fill="none" stroke="blue" d="M437.86,-664C446.22,-664 454.51,-664 462.46,-664"/>
<polygon fill="blue" stroke="blue" points="462.32,-667.5 472.32,-664 462.32,-660.5 462.32,-667.5"/>
</g>
<!-- [16]Water Jug Puzzle[7]Playing[13]Pour 3G &#45;&gt; 7G&#45;&gt;[16]Water Jug Puzzle[11]Check Clear -->
<g id="edge16" class="edge">
<title>[16]Water Jug Puzzle[7]Playing[13]Pour 3G &#45;&gt; 7G&#45;&gt;[16]Water Jug Puzzle[11]Check Clear</title>
<path fill="none" stroke="blue" d="M421.72,-723.56C427.25,-720.71 432.72,-717.84 438,-715 453.36,-706.76 469.94,-697.25 484.5,-688.7"/>
<polygon fill="blue" stroke="blue" points="486.08,-691.83 492.91,-683.73 482.52,-685.8 486.08,-691.83"/>
</g>
<!-- [16]Water Jug Puzzle[7]Playing[13]Pour 5G &#45;&gt; 3G&#45;&gt;[16]Water Jug Puzzle[11]Check Clear -->
<g id="edge18" class="edge">
<title>[16]Water Jug Puzzle[7]Playing[13]Pour 5G &#45;&gt; 3G&#45;&gt;[16]Water Jug Puzzle[11]Check Clear</title>
<path fill="none" stroke="blue" d="M427.48,-824.82C431.17,-822.03 434.7,-819.09 438,-816 475.23,-781.12 501.21,-726.78 514.72,-693.4"/>
<polygon fill="blue" stroke="blue" points="517.87,-694.94 518.26,-684.35 511.36,-692.38 517.87,-694.94"/>
</g>
<!-- [16]Water Jug Puzzle[7]Playing[13]Pour 5G &#45;&gt; 7G&#45;&gt;[16]Water Jug Puzzle[11]Check Clear -->
<g id="edge20" class="edge">
<title>[16]Water Jug Puzzle[7]Playing[13]Pour 5G &#45;&gt; 7G&#45;&gt;[16]Water Jug Puzzle[11]Check Clear</title>
<path fill="none" stroke="blue" d="M429.15,-925.78C432.3,-923.02 435.27,-920.1 438,-917 495.81,-851.52 515.9,-745.83 522.49,-694.26"/>
<polygon fill="blue" stroke="blue" points="525.95,-694.79 523.65,-684.45 519,-693.97 525.95,-694.79"/>
</g>
<!-- [16]Water Jug Puzzle[7]Playing[13]Pour 7G &#45;&gt; 3G&#45;&gt;[16]Water Jug Puzzle[11]Check Clear -->
<g id="edge22" class="edge">
<title>[16]Water Jug Puzzle[7]Playing[13]Pour 7G &#45;&gt; 3G&#45;&gt;[16]Water Jug Puzzle[11]Check Clear</title>
<path fill="none" stroke="blue" d="M429.95,-1026.68C432.83,-1023.95 435.53,-1021.06 438,-1018 517.06,-919.82 526.07,-760.22 526.17,-694.13"/>
<polygon fill="blue" stroke="blue" points="529.67,-694.41 526.11,-684.43 522.67,-694.45 529.67,-694.41"/>
</g>
<!-- [16]Water Jug Puzzle[7]Playing[13]Pour 7G &#45;&gt; 5G&#45;&gt;[16]Water Jug Puzzle[11]Check Clear -->
<g id="edge24" class="edge">
<title>[16]Water Jug Puzzle[7]Playing[13]Pour 7G &#45;&gt; 5G&#45;&gt;[16]Water Jug Puzzle[11]Check Clear</title>
<path fill="none" stroke="blue" d="M430.15,-1127.84C432.98,-1125.07 435.61,-1122.13 438,-1119 489.61,-1051.36 515.67,-784.86 523.17,-694.3"/>
<polygon fill="blue" stroke="blue" points="526.64,-694.72 523.96,-684.47 519.67,-694.16 526.64,-694.72"/>
</g>
<!-- [16]Water Jug Puzzle[11]Check Clear[7]Not yet -->
<g id="node15" class="node">
<title>[16]Water Jug Puzzle[11]Check Clear[7]Not yet</title>
<text xml:space="preserve" text-anchor="start" x="683.88" y="-981.7" font-family="Helvetica,Arial,sans-serif" font-weight="bold" font-size="14.00">Not yet</text>
<text xml:space="preserve" text-anchor="start" x="625" y="-955.7" font-family="Helvetica,Arial,sans-serif" font-size="14.00">when: (negate is&#45;cleared?)</text>
</g>
<!-- [16]Water Jug Puzzle[11]Check Clear&#45;&gt;[16]Water Jug Puzzle[11]Check Clear[7]Not yet -->
<g id="edge25" class="edge">
<title>[16]Water Jug Puzzle[11]Check Clear&#45;&gt;[16]Water Jug Puzzle[11]Check Clear[7]Not yet</title>
<path fill="none" stroke="red" d="M538.52,-682.74C568.98,-734.56 654.5,-880 691.07,-942.2"/>
</g>
<!-- [16]Water Jug Puzzle[11]Check Clear[6]Clear! -->
<g id="node16" class="node">
<title>[16]Water Jug Puzzle[11]Check Clear[6]Clear!</title>
<text xml:space="preserve" text-anchor="start" x="688.38" y="-674.7" font-family="Helvetica,Arial,sans-serif" font-weight="bold" font-size="14.00">Clear!</text>
<text xml:space="preserve" text-anchor="start" x="652.75" y="-648.7" font-family="Helvetica,Arial,sans-serif" font-size="14.00">when: is&#45;cleared?</text>
</g>
<!-- [16]Water Jug Puzzle[11]Check Clear&#45;&gt;[16]Water Jug Puzzle[11]Check Clear[6]Clear! -->
<g id="edge27" class="edge">
<title>[16]Water Jug Puzzle[11]Check Clear&#45;&gt;[16]Water Jug Puzzle[11]Check Clear[6]Clear!</title>
<path fill="none" stroke="red" d="M579.22,-664C599.12,-664 622.09,-664 643.08,-664"/>
</g>
<!-- [16]Water Jug Puzzle[11]Check Clear[7]Not yet&#45;&gt;[16]Water Jug Puzzle[7]Playing -->
<g id="edge26" class="edge">
<title>[16]Water Jug Puzzle[11]Check Clear[7]Not yet&#45;&gt;[16]Water Jug Puzzle[7]Playing</title>
<path fill="none" stroke="red" d="M685.65,-999.89C614.34,-1088.65 387.89,-1344.05 232.75,-1220 152.44,-1155.78 119.9,-829.39 110.49,-708.83"/>
<polygon fill="red" stroke="red" points="113.99,-708.7 109.74,-699 107.01,-709.23 113.99,-708.7"/>
</g>
<!-- [16]Water Jug Puzzle[8]Cleared! -->
<g id="node17" class="node">
<title>[16]Water Jug Puzzle[8]Cleared!</title>
<path fill="white" stroke="black" d="M979.25,-697C979.25,-697 851,-697 851,-697 845,-697 839,-691 839,-685 839,-685 839,-643 839,-643 839,-637 845,-631 851,-631 851,-631 979.25,-631 979.25,-631 985.25,-631 991.25,-637 991.25,-643 991.25,-643 991.25,-685 991.25,-685 991.25,-691 985.25,-697 979.25,-697"/>
<text xml:space="preserve" text-anchor="start" x="885.88" y="-676.7" font-family="Helvetica,Arial,sans-serif" font-weight="bold" font-size="14.00">Cleared!</text>
<text xml:space="preserve" text-anchor="start" x="851" y="-646.7" font-family="Helvetica,Arial,sans-serif" font-size="14.00">trans: show&#45;cleared</text>
</g>
<!-- [16]Water Jug Puzzle[11]Check Clear[6]Clear!&#45;&gt;[16]Water Jug Puzzle[8]Cleared! -->
<g id="edge28" class="edge">
<title>[16]Water Jug Puzzle[11]Check Clear[6]Clear!&#45;&gt;[16]Water Jug Puzzle[8]Cleared!</title>
<path fill="none" stroke="red" d="M775.15,-664C791.71,-664 809.76,-664 827.21,-664"/>
<polygon fill="red" stroke="red" points="827.06,-667.5 837.06,-664 827.06,-660.5 827.06,-667.5"/>
</g>
</g>
</svg>
